<?xml version="1.0" standalone="no"?>
<!DOCTYPE svg PUBLIC "-//W3C//DTD SVG 20010904//EN"
 "http://www.w3.org/TR/2001/REC-SVG-20010904/DTD/svg10.dtd">
<svg version="1.0" xmlns="http://www.w3.org/2000/svg"
 width="700.000000pt" height="700.000000pt" viewBox="0 0 700.000000 700.000000"
 preserveAspectRatio="xMidYMid meet">
<metadata>
Created by potrace 1.14, written by Peter Selinger 2001-2017
</metadata>
<g transform="translate(0.000000,700.000000) scale(0.100000,-0.100000)"
fill="#000000" stroke="none">
<path d="M2940 6766 c0 -2 8 -10 18 -17 15 -13 16 -12 3 4 -13 16 -21 21 -21
13z"/>
<path d="M2975 6700 c-3 -5 -1 -10 4 -10 6 0 11 5 11 10 0 6 -2 10 -4 10 -3 0
-8 -4 -11 -10z"/>
<path d="M2833 6687 c0 -7 11 -13 23 -13 20 0 25 11 6 11 -4 0 -12 3 -18 7 -6
4 -11 1 -11 -5z"/>
<path d="M2587 6679 c7 -7 15 -10 18 -7 3 3 -2 9 -12 12 -14 6 -15 5 -6 -5z"/>
<path d="M2655 6661 c-3 -5 -2 -12 3 -15 5 -3 9 1 9 9 0 17 -3 19 -12 6z"/>
<path d="M2766 6645 c-11 -8 -15 -15 -9 -15 6 0 16 7 23 15 16 19 11 19 -14 0z"/>
<path d="M2826 6638 c10 -14 21 -24 23 -22 3 3 -6 15 -18 27 l-24 22 19 -27z"/>
<path d="M2513 6632 c-8 -14 -8 -19 1 -19 7 0 13 9 13 19 1 10 1 18 0 18 -1 0
-7 -8 -14 -18z"/>
<path d="M2550 6646 c0 -2 7 -7 16 -10 8 -3 12 -2 9 4 -6 10 -25 14 -25 6z"/>
<path d="M2963 6638 c-11 -19 -13 -39 -1 -32 5 3 7 9 4 12 -3 3 -1 11 5 19 6
7 9 13 6 13 -3 0 -9 -6 -14 -12z"/>
<path d="M3059 6648 c-5 -18 -6 -38 -1 -34 7 8 12 36 6 36 -2 0 -4 -1 -5 -2z"/>
<path d="M2636 6627 c3 -10 9 -15 12 -12 3 3 0 11 -7 18 -10 9 -11 8 -5 -6z"/>
<path d="M2415 6620 c-3 -5 -1 -10 4 -10 6 0 11 5 11 10 0 6 -2 10 -4 10 -3 0
-8 -4 -11 -10z"/>
<path d="M2580 6615 c0 -5 5 -17 10 -25 5 -8 10 -10 10 -5 0 6 -5 17 -10 25
-5 8 -10 11 -10 5z"/>
<path d="M2735 6610 c-4 -6 -11 -8 -16 -5 -5 3 -6 -1 -3 -10 4 -9 7 -15 8 -13
1 2 8 11 15 21 7 9 11 17 8 17 -3 0 -9 -5 -12 -10z"/>
<path d="M2811 6611 c-8 -5 -9 -11 -3 -15 5 -3 12 1 16 9 6 17 6 18 -13 6z"/>
<path d="M2897 6599 c4 -13 8 -18 11 -10 2 7 -1 18 -6 23 -8 8 -9 4 -5 -13z"/>
<path d="M2470 6606 c0 -2 7 -7 16 -10 8 -3 12 -2 9 4 -6 10 -25 14 -25 6z"/>
<path d="M2660 6595 c-11 -13 -10 -14 5 -9 14 6 16 4 10 -6 -5 -8 -4 -11 3 -6
6 4 9 13 5 21 -7 19 -8 19 -23 0z"/>
<path d="M2781 6594 c0 -11 3 -14 6 -6 3 7 2 16 -1 19 -3 4 -6 -2 -5 -13z"/>
<path d="M2613 6585 c0 -8 4 -12 9 -9 5 3 6 10 3 15 -9 13 -12 11 -12 -6z"/>
<path d="M2373 6575 c0 -8 4 -12 9 -9 5 3 6 10 3 15 -9 13 -12 11 -12 -6z"/>
<path d="M2476 6577 c3 -10 9 -15 12 -12 3 3 0 11 -7 18 -10 9 -11 8 -5 -6z"/>
<path d="M2835 6573 c3 -12 1 -24 -5 -28 -6 -3 -10 4 -11 17 0 13 -3 17 -6 10
-3 -7 -2 -20 1 -29 6 -15 8 -15 22 -1 13 13 14 20 5 34 -11 17 -11 17 -6 -3z"/>
<path d="M2516 6565 c-3 -8 -1 -15 4 -15 6 0 10 7 10 15 0 8 -2 15 -4 15 -2 0
-6 -7 -10 -15z"/>
<path d="M2868 6573 c7 -3 16 -2 19 1 4 3 -2 6 -13 5 -11 0 -14 -3 -6 -6z"/>
<path d="M3016 6567 c3 -10 9 -15 12 -12 3 3 0 11 -7 18 -10 9 -11 8 -5 -6z"/>
<path d="M2413 6557 c-3 -5 -2 -11 1 -14 3 -4 6 -2 6 4 0 6 11 9 25 8 14 -2
25 0 25 5 0 10 -50 8 -57 -3z"/>
<path d="M2545 6546 c-20 -21 -26 -22 -36 -10 -7 8 -14 12 -17 9 -3 -2 6 -13
19 -24 13 -11 21 -23 17 -27 -4 -4 -19 5 -33 20 -14 15 -25 21 -25 14 0 -7 13
-22 29 -33 16 -10 27 -23 24 -28 -3 -4 -14 0 -24 9 -18 16 -19 16 -13 1 3 -10
1 -17 -5 -17 -6 0 -11 9 -11 19 0 25 -10 31 -35 20 -19 -9 -19 -9 2 -5 16 3
23 -2 25 -18 2 -14 10 -21 25 -21 11 0 25 -4 30 -9 4 -5 3 -6 -4 -2 -6 3 -14
2 -18 -4 -4 -7 -13 -7 -26 1 -22 11 -32 7 -35 -16 -1 -8 3 -13 9 -12 7 1 11
-8 10 -23 l-3 -25 14 24 14 25 13 -22 c13 -21 49 -31 49 -14 0 4 8 8 18 9 11
1 18 -6 19 -19 2 -16 -1 -17 -13 -8 -8 7 -14 9 -14 5 0 -4 8 -14 18 -21 16
-11 15 -13 -10 -23 -16 -6 -28 -13 -28 -15 0 -7 31 5 55 21 11 7 14 13 8 13
-7 0 -10 7 -7 15 4 8 10 15 16 15 5 0 6 -4 3 -10 -3 -5 -1 -10 5 -10 6 0 8 -5
4 -12 -5 -9 -2 -8 10 1 15 13 16 11 11 -20 -4 -30 -4 -31 7 -14 13 22 18 56 7
50 -4 -3 -9 2 -12 9 -4 10 1 14 14 13 10 -1 19 -6 19 -12 0 -5 7 -1 15 9 8 10
12 23 9 28 -3 4 5 6 18 4 13 -3 23 -5 23 -7 0 -1 10 -3 23 -4 18 -2 20 0 10
12 -18 22 -19 60 -2 60 8 0 13 -6 10 -14 -3 -7 -2 -12 2 -12 19 3 33 -2 27
-11 -3 -5 -13 -7 -23 -4 -16 5 -16 5 0 -9 10 -8 14 -17 10 -21 -4 -4 0 -6 8
-4 8 2 14 -3 12 -10 -1 -8 2 -11 8 -7 8 5 6 13 -5 25 -15 17 -15 19 1 28 16 9
15 10 -4 16 -12 4 -22 12 -22 17 0 6 5 7 10 4 6 -3 10 -2 10 3 0 6 -7 12 -15
16 -8 3 -15 11 -15 17 0 8 4 8 15 -1 8 -7 15 -9 15 -5 0 9 -31 34 -43 35 -5 0
-5 -10 -1 -22 7 -23 6 -23 -15 -4 -13 12 -21 14 -21 7 0 -7 -4 -10 -10 -6 -5
3 -7 12 -4 20 4 8 10 12 15 9 5 -3 17 0 26 6 15 8 13 10 -10 7 -32 -4 -48 -22
-40 -46 5 -13 4 -14 -8 -3 -8 7 -14 19 -14 27 0 8 -4 14 -10 14 -5 0 -13 8
-17 18 -7 16 -8 16 -5 -2 2 -11 9 -19 16 -17 9 2 11 -3 6 -15 -4 -10 -8 -25
-10 -33 -2 -8 -4 -16 -4 -18 -1 -1 -7 3 -15 10 -11 11 -11 15 0 23 11 8 11 13
-1 29 -8 11 -15 15 -15 10 0 -6 4 -14 10 -20 6 -6 2 -14 -11 -22 -19 -12 -20
-11 -14 7 4 13 2 21 -5 21 -6 0 -9 -4 -5 -9 3 -5 1 -12 -4 -15 -5 -3 -11 3
-14 14 -3 13 1 21 15 26 11 3 17 8 14 11 -3 3 -16 -1 -30 -10 -13 -9 -27 -13
-30 -9 -4 3 4 12 16 19 13 7 17 12 10 13 -7 0 -24 -11 -37 -24z m10 -38 c-1
-12 -6 -23 -12 -25 -5 -2 -9 7 -7 19 1 13 3 27 3 31 2 19 18 -4 16 -25z m22 8
c-5 -14 18 -29 34 -23 4 1 15 -6 25 -15 16 -14 22 -14 37 -3 11 8 14 15 7 18
-6 3 -5 4 2 3 7 -2 13 -9 13 -17 0 -8 -7 -13 -15 -11 -12 3 -12 1 -3 -9 16
-16 46 -21 37 -7 -5 7 -2 8 7 3 12 -7 12 -6 0 9 -13 15 -13 19 0 27 18 11 26
11 34 -1 4 -6 10 -8 15 -5 5 3 11 1 14 -4 8 -12 -37 -8 -46 4 -5 6 -8 3 -8 -7
0 -9 5 -20 11 -23 6 -4 8 -13 5 -20 -2 -7 1 -18 7 -25 9 -10 9 -11 -3 -8 -8 3
-14 15 -13 27 2 18 1 20 -11 9 -8 -7 -11 -17 -8 -23 2 -5 -1 -5 -8 2 -10 9
-16 9 -26 -2 -17 -17 -18 -29 -1 -19 7 4 9 3 4 -2 -5 -5 -21 -9 -35 -9 -21 0
-26 -4 -24 -20 3 -20 3 -20 -11 -1 -8 10 -19 16 -25 12 -7 -4 -10 1 -7 14 5
25 -11 36 -19 14 -4 -9 -9 -14 -13 -11 -3 4 -12 2 -19 -4 -14 -12 -34 -4 -34
13 0 6 7 5 17 -3 14 -12 16 -12 8 0 -6 10 -4 12 5 6 9 -6 11 -4 5 5 -5 8 -4
11 2 7 6 -4 19 0 29 8 16 11 17 16 6 27 -11 11 -12 10 -6 -6 6 -16 4 -18 -10
-13 -10 4 -15 3 -11 -3 4 -6 3 -10 -2 -9 -4 1 -10 0 -13 -1 -19 -9 -72 -5 -81
6 -14 16 -5 18 21 4 12 -6 21 -7 25 0 3 5 13 6 22 3 12 -5 15 -2 10 10 -4 10
3 21 19 32 14 9 22 20 19 25 -4 6 -3 15 0 20 9 15 18 12 12 -4z"/>
<path d="M2580 6482 c0 -7 -3 -11 -8 -8 -4 2 -15 -2 -25 -9 -16 -11 -16 -13
-2 -19 9 -3 13 -2 10 3 -3 5 -1 12 4 15 11 7 36 -22 28 -31 -4 -3 -2 -12 4
-20 6 -7 8 -13 3 -13 -5 0 -2 -5 6 -10 10 -6 20 -4 32 7 13 11 18 12 18 3 0
-7 9 -2 19 11 14 18 16 27 9 37 -6 7 -13 10 -16 8 -2 -3 -17 1 -33 10 -16 8
-29 11 -29 7 0 -5 -5 -1 -10 7 -7 11 -10 11 -10 2z m35 -30 c0 -6 3 -14 8 -18
4 -4 7 -2 7 4 0 7 9 11 20 9 28 -4 33 -12 15 -27 -8 -7 -15 -9 -15 -5 0 5 -9
0 -20 -10 -11 -10 -20 -13 -20 -7 0 7 5 12 11 12 5 0 8 4 4 10 -3 5 -11 8 -18
6 -7 -1 -8 -1 -4 2 5 2 1 12 -8 22 -16 17 -16 18 2 16 10 -2 18 -8 18 -14z"/>
<path d="M2635 6429 c-3 -4 2 -6 10 -5 21 3 28 13 10 13 -9 0 -18 -4 -20 -8z"/>
<path d="M2690 6560 c0 -5 5 -10 10 -10 6 0 10 5 10 10 0 6 -4 10 -10 10 -5 0
-10 -4 -10 -10z"/>
<path d="M2784 6559 c-3 -6 2 -18 12 -27 17 -16 17 -16 5 0 -7 9 -10 22 -6 28
3 5 4 10 1 10 -3 0 -8 -5 -12 -11z"/>
<path d="M2895 6560 c-3 -5 -1 -10 4 -10 6 0 11 5 11 10 0 6 -2 10 -4 10 -3 0
-8 -4 -11 -10z"/>
<path d="M2933 6556 c-4 -5 -1 -6 7 -1 9 6 12 4 8 -7 -4 -9 0 -15 8 -15 8 0
12 3 9 5 -3 3 -1 10 5 16 6 8 3 12 -11 12 -11 0 -23 -5 -26 -10z"/>
<path d="M2991 6547 c-8 -10 -7 -14 2 -14 8 0 14 6 14 14 0 7 -1 13 -2 13 -2
0 -8 -6 -14 -13z"/>
<path d="M2847 6529 c-8 -10 -16 -17 -18 -14 -3 2 -5 -4 -5 -15 0 -10 4 -16 8
-14 4 3 8 -2 8 -11 0 -9 -4 -13 -10 -10 -5 3 -10 1 -10 -5 0 -7 6 -10 13 -7 6
2 11 16 10 31 -2 23 0 26 13 16 8 -8 14 -8 14 -2 0 6 -5 12 -12 14 -6 2 -8 10
-4 17 6 9 12 8 23 -6 8 -10 12 -13 9 -6 -4 6 -1 13 6 15 7 3 2 7 -10 10 -15 4
-26 0 -35 -13z"/>
<path d="M2910 6536 c0 -2 8 -10 18 -17 15 -13 16 -12 3 4 -13 16 -21 21 -21
13z"/>
<path d="M2393 6516 c1 -6 -5 -9 -13 -8 -8 2 -11 0 -7 -4 4 -4 15 -9 23 -10 9
-1 13 0 10 3 -3 4 -1 11 4 18 7 8 5 12 -5 12 -7 0 -13 -5 -12 -11z"/>
<path d="M2895 6500 c-4 -6 1 -7 12 -3 16 6 17 5 3 -13 -14 -18 -14 -18 2 -5
10 7 15 17 12 22 -7 12 -21 11 -29 -1z"/>
<path d="M3015 6501 c-3 -5 -2 -12 3 -15 5 -3 9 1 9 9 0 17 -3 19 -12 6z"/>
<path d="M2936 6473 c-6 -14 -5 -15 5 -6 7 7 10 15 7 18 -3 3 -9 -2 -12 -12z"/>
<path d="M2870 6469 c0 -5 5 -7 10 -4 6 3 10 8 10 11 0 2 -4 4 -10 4 -5 0 -10
-5 -10 -11z"/>
<path d="M2891 6451 c-8 -5 -21 -7 -30 -3 -17 6 -18 6 19 -23 14 -11 20 -13
13 -6 -10 11 -9 17 5 27 19 15 14 18 -7 5z"/>
<path d="M2835 6421 c-3 -5 0 -13 6 -17 7 -4 9 -3 5 4 -3 5 0 13 6 15 9 4 10
6 1 6 -6 1 -14 -3 -18 -8z"/>
<path d="M3095 6411 c-3 -5 -2 -12 3 -15 5 -3 9 1 9 9 0 17 -3 19 -12 6z"/>
<path d="M2954 6386 c1 -8 5 -18 8 -22 4 -3 5 1 4 10 -1 8 -5 18 -8 22 -4 3
-5 -1 -4 -10z"/>
<path d="M2702 6370 c-7 -11 -10 -20 -6 -20 7 0 34 27 34 34 0 13 -16 5 -28
-14z"/>
<path d="M3027 6374 c2 -7 -3 -24 -13 -39 -16 -25 -16 -27 1 -43 16 -14 17
-14 7 -1 -13 17 -6 53 9 44 4 -3 5 -13 2 -22 -5 -13 -2 -15 11 -10 14 6 17 3
12 -9 -3 -8 -6 -18 -6 -20 0 -2 -8 -4 -17 -5 -14 0 -12 -3 5 -10 14 -5 20 -13
16 -20 -4 -7 -3 -9 3 -6 6 4 13 0 17 -8 3 -8 -3 -19 -12 -24 -15 -9 -14 -10 5
-8 12 0 19 5 17 9 -3 4 -1 8 5 8 15 0 23 -18 11 -25 -7 -5 -5 -12 7 -21 22
-16 33 -18 33 -4 0 6 -5 9 -11 8 -6 -2 -14 3 -17 11 -3 8 0 11 7 7 11 -7 60
23 61 38 0 5 -8 2 -17 -5 -15 -12 -16 -12 -10 4 4 10 3 16 -1 13 -4 -3 -13 4
-20 15 -13 21 -3 26 16 7 7 -7 12 -8 12 -2 0 5 4 4 8 -3 5 -8 12 -7 27 4 20
15 20 15 -1 9 -18 -6 -21 -2 -20 21 0 17 -4 27 -12 26 -7 -2 -12 2 -12 7 0 14
23 12 39 -2 11 -11 11 -9 1 8 -16 26 -38 27 -46 2 -3 -10 -10 -15 -16 -12 -7
4 -8 2 -4 -5 4 -6 12 -8 18 -5 6 4 9 1 7 -5 -6 -17 -22 -16 -34 3 -7 11 -4 19
10 30 11 8 17 18 12 22 -4 4 -7 2 -7 -4 0 -7 -5 -12 -11 -12 -6 0 -9 6 -6 14
3 8 -1 17 -8 20 -11 4 -12 0 -5 -18 4 -12 5 -27 2 -32 -9 -12 -46 -18 -39 -7
3 5 2 15 -4 23 -6 11 -9 12 -9 2 0 -7 -4 -11 -10 -7 -5 3 -6 15 0 29 6 16 5
23 -5 23 -7 0 -11 -6 -8 -13z m79 -85 c5 0 9 -5 10 -12 0 -6 8 -26 17 -44 10
-20 13 -34 7 -38 -10 -6 -59 24 -60 37 0 4 -6 13 -14 21 -13 12 -13 17 1 37
11 15 18 18 23 10 4 -6 11 -11 16 -11z m58 -20 c-3 -5 -10 -7 -15 -3 -5 3 -7
10 -3 15 3 5 10 7 15 3 5 -3 7 -10 3 -15z"/>
<path d="M3073 6275 c0 -8 4 -12 9 -9 5 3 6 10 3 15 -9 13 -12 11 -12 -6z"/>
<path d="M3085 6250 c-6 -10 34 -35 43 -26 3 3 0 6 -7 6 -7 0 -10 4 -7 9 3 5
-1 11 -9 15 -8 3 -17 1 -20 -4z"/>
<path d="M3130 6380 c0 -5 5 -10 11 -10 5 0 7 5 4 10 -3 6 -8 10 -11 10 -2 0
-4 -4 -4 -10z"/>
<path d="M3287 6379 c7 -7 15 -10 18 -7 3 3 -2 9 -12 12 -14 6 -15 5 -6 -5z"/>
<path d="M2751 6371 c-8 -5 -9 -11 -3 -15 5 -3 12 1 16 9 6 17 6 18 -13 6z"/>
<path d="M3070 6358 c0 -9 5 -20 10 -23 13 -8 13 5 0 25 -8 13 -10 13 -10 -2z"/>
<path d="M3193 6353 c0 -7 4 -13 8 -13 4 0 9 6 12 13 3 8 0 14 -7 14 -7 0 -13
-6 -13 -14z"/>
<path d="M3235 6359 c-4 -6 -4 -13 -1 -16 3 -4 6 -1 6 6 0 7 5 9 10 6 6 -4 7
-11 4 -17 -4 -7 -2 -8 5 -4 9 6 9 11 0 22 -14 17 -16 17 -24 3z"/>
<path d="M3333 6355 c0 -8 4 -12 9 -9 5 3 6 10 3 15 -9 13 -12 11 -12 -6z"/>
<path d="M2500 6344 c0 -1 8 -8 17 -15 14 -12 16 -12 8 0 -6 11 -4 13 9 8 9
-4 15 -3 11 2 -4 8 -45 12 -45 5z"/>
<path d="M2670 6340 c0 -6 7 -10 15 -10 8 0 15 2 15 4 0 2 -7 6 -15 10 -8 3
-15 1 -15 -4z"/>
<path d="M2715 6340 c-3 -5 -1 -10 4 -10 6 0 11 5 11 10 0 6 -2 10 -4 10 -3 0
-8 -4 -11 -10z"/>
<path d="M2956 6333 c-6 -14 -5 -15 5 -6 7 7 10 15 7 18 -3 3 -9 -2 -12 -12z"/>
<path d="M3474 6342 c4 -3 14 -7 22 -8 9 -1 13 0 10 4 -4 3 -14 7 -22 8 -9 1
-13 0 -10 -4z"/>
<path d="M2910 6326 c0 -2 7 -7 16 -10 8 -3 12 -2 9 4 -6 10 -25 14 -25 6z"/>
<path d="M3210 6322 c0 -9 55 -52 67 -52 4 0 -3 7 -16 16 -18 13 -20 18 -10
26 10 6 6 7 -10 3 -16 -5 -21 -4 -17 4 4 6 2 11 -3 11 -6 0 -11 -4 -11 -8z"/>
<path d="M3300 6321 c0 -9 30 -24 36 -18 2 1 -6 8 -16 15 -11 7 -20 8 -20 3z"/>
<path d="M2584 6304 c-18 -14 -18 -14 6 -3 31 14 36 19 24 19 -6 0 -19 -7 -30
-16z"/>
<path d="M2673 6288 c-1 -10 3 -18 9 -18 6 0 8 3 5 7 -4 3 -2 11 3 18 7 8 6
12 -3 12 -7 0 -14 -9 -14 -19z"/>
<path d="M3270 6300 c0 -5 5 -10 10 -10 6 0 10 5 10 10 0 6 -4 10 -10 10 -5 0
-10 -4 -10 -10z"/>
<path d="M3355 6303 c3 -3 -3 -16 -12 -27 -14 -15 -14 -18 -2 -8 9 6 18 9 22
6 3 -3 4 1 3 10 -1 8 -5 18 -9 21 -4 3 -5 2 -2 -2z"/>
<path d="M3410 6299 c0 -5 5 -7 10 -4 6 3 10 8 10 11 0 2 -4 4 -10 4 -5 0 -10
-5 -10 -11z"/>
<path d="M3190 6289 c0 -5 4 -8 9 -4 6 3 15 -4 21 -15 11 -21 30 -27 30 -9 0
5 -4 7 -10 4 -5 -3 -10 0 -10 8 0 8 -7 18 -16 21 -21 8 -24 8 -24 -5z"/>
<path d="M2549 6277 c6 -8 9 -16 6 -19 -3 -2 2 -5 10 -5 13 0 13 3 -2 19 -19
21 -31 25 -14 5z"/>
<path d="M2594 6251 c0 -22 4 -37 7 -35 7 4 4 62 -3 70 -3 2 -5 -13 -4 -35z"/>
<path d="M3453 6265 c0 -8 4 -12 9 -9 5 3 6 10 3 15 -9 13 -12 11 -12 -6z"/>
<path d="M2496 6262 c-3 -5 1 -9 9 -9 8 0 12 4 9 9 -3 4 -7 8 -9 8 -2 0 -6 -4
-9 -8z"/>
<path d="M2626 6258 c3 -4 9 -8 15 -8 5 0 9 4 9 8 0 5 -7 9 -15 9 -8 0 -12 -4
-9 -9z"/>
<path d="M2996 6261 c-3 -5 1 -14 8 -20 10 -9 16 -9 21 -1 4 6 1 9 -7 8 -7 -2
-12 3 -10 10 2 14 -4 16 -12 3z"/>
<path d="M2670 6239 c0 -5 5 -7 10 -4 6 3 10 8 10 11 0 2 -4 4 -10 4 -5 0 -10
-5 -10 -11z"/>
<path d="M3195 6240 c-4 -6 -4 -14 -1 -17 3 -4 6 -1 6 5 0 7 5 12 11 12 5 0 7
-5 4 -10 -3 -6 1 -13 9 -16 9 -3 13 -11 9 -17 -4 -6 -1 -7 7 -2 10 6 9 11 -6
22 -10 8 -18 17 -16 21 6 12 -16 14 -23 2z"/>
<path d="M3255 6239 c-6 -8 -4 -10 5 -4 10 6 12 4 6 -11 -6 -15 -5 -17 5 -6 9
9 10 15 2 23 -8 8 -13 7 -18 -2z"/>
<path d="M3296 6233 c-6 -14 -5 -15 5 -6 7 7 10 15 7 18 -3 3 -9 -2 -12 -12z"/>
<path d="M3346 6238 c3 -5 10 -6 15 -3 13 9 11 12 -6 12 -8 0 -12 -4 -9 -9z"/>
<path d="M3021 6220 c-9 -5 -4 -7 13 -7 29 0 32 2 13 10 -8 3 -20 2 -26 -3z"/>
<path d="M3552 6220 c2 -9 -3 -14 -12 -12 -8 2 -11 0 -7 -4 13 -14 35 -12 33
2 -1 7 -6 17 -10 21 -4 4 -6 1 -4 -7z"/>
<path d="M3375 6210 c-4 -6 -11 -8 -16 -5 -5 4 -9 1 -9 -4 0 -17 27 -13 34 4
6 17 0 20 -9 5z"/>
<path d="M2370 6206 c0 -2 7 -7 16 -10 8 -3 12 -2 9 4 -6 10 -25 14 -25 6z"/>
<path d="M3173 6192 c-17 -13 -21 -25 -18 -51 5 -36 15 -55 15 -28 0 10 5 17
10 17 6 0 10 5 10 11 0 8 -5 8 -15 -1 -18 -15 -20 1 -2 19 10 11 10 13 0 7
-26 -14 -12 10 15 26 15 10 23 17 17 18 -5 0 -20 -8 -32 -18z"/>
<path d="M3278 6198 c-9 -5 -6 -7 9 -5 12 2 25 6 28 8 8 9 -23 6 -37 -3z"/>
<path d="M3445 6199 c-4 -6 -4 -13 -1 -16 3 -4 6 -1 6 6 0 7 5 9 10 6 6 -3 10
-1 10 4 0 14 -17 14 -25 0z"/>
<path d="M3505 6199 c-4 -6 -5 -12 -2 -15 2 -3 7 2 10 11 7 17 1 20 -8 4z"/>
<path d="M3395 6189 c-4 -6 -5 -12 -2 -15 2 -3 7 2 10 11 7 17 1 20 -8 4z"/>
<path d="M2650 6180 c0 -5 5 -10 11 -10 5 0 7 5 4 10 -3 6 -8 10 -11 10 -2 0
-4 -4 -4 -10z"/>
<path d="M3195 6180 c-4 -6 -4 -14 -1 -17 3 -4 6 -1 6 5 0 21 16 13 17 -8 1
-13 -2 -18 -9 -14 -7 4 -8 2 -4 -5 11 -17 26 -3 22 21 -3 25 -21 35 -31 18z"/>
<path d="M3245 6180 c-10 -16 14 -50 30 -44 8 4 15 8 15 11 0 3 -6 3 -14 0 -8
-3 -17 1 -20 9 -9 22 -7 26 6 18 7 -4 8 -3 4 4 -9 15 -13 15 -21 2z"/>
<path d="M3411 6172 c-6 -11 -7 -23 -3 -27 4 -5 -1 -5 -10 -2 -10 4 -25 4 -33
1 -14 -6 -13 -8 2 -21 17 -14 17 -14 1 -9 -10 3 -18 1 -18 -4 0 -6 6 -10 13
-10 8 0 7 -4 -3 -10 -22 -14 -27 -12 -25 13 3 29 -5 48 -16 41 -5 -3 -9 0 -9
7 0 7 -3 9 -7 5 -5 -4 -1 -13 7 -19 24 -19 22 -36 -5 -69 -14 -16 -25 -35 -25
-41 1 -7 7 -1 15 13 8 14 14 21 15 16 0 -5 7 -3 15 4 17 14 33 6 45 -26 9 -23
40 -25 40 -2 0 7 -5 6 -14 -1 -11 -9 -15 -7 -19 9 -6 22 8 38 16 18 4 -10 7
-11 18 0 17 16 34 16 20 -1 -8 -10 -7 -19 4 -33 8 -10 15 -14 15 -8 0 5 -5 15
-10 20 -8 8 -6 15 6 25 16 12 17 12 12 -2 -3 -9 -2 -22 3 -30 8 -12 10 -12 8
1 -3 28 1 41 11 35 5 -3 7 -13 3 -23 -3 -9 3 -6 13 8 10 14 22 28 27 31 5 4 1
10 -9 13 -23 7 -29 53 -7 53 8 0 12 -6 8 -15 -3 -8 3 -21 15 -29 11 -8 18 -18
16 -22 -6 -8 50 -8 59 1 4 4 -1 5 -12 4 -10 -2 -26 1 -36 6 -18 9 -18 10 0 23
10 7 15 17 10 21 -4 4 -7 2 -7 -4 0 -7 -4 -12 -8 -12 -13 0 -9 39 5 44 7 3 13
2 13 -2 0 -4 9 -18 20 -32 15 -18 18 -20 13 -6 -5 14 -3 17 7 11 9 -5 11 -4 6
4 -4 6 -11 9 -16 6 -5 -3 -14 4 -20 15 -11 20 -13 21 -37 5 -24 -16 -25 -16
-19 7 7 23 7 23 -6 2 -10 -18 -15 -19 -25 -9 -6 7 -9 16 -5 20 4 4 -3 2 -16
-4 -12 -7 -20 -16 -17 -20 2 -5 -7 -8 -20 -8 -21 0 -23 2 -14 13 7 8 9 17 6
20 -3 3 -10 -3 -16 -14z m74 -12 c3 -5 1 -10 -6 -10 -9 0 -9 -4 1 -15 6 -8 9
-19 5 -25 -3 -5 0 -13 9 -16 8 -3 12 -12 9 -20 -3 -8 -10 -11 -17 -7 -6 4 -18
8 -26 8 -8 0 -20 4 -26 8 -7 4 -15 0 -18 -9 -5 -13 -9 -14 -20 -5 -10 8 -16 9
-21 1 -3 -6 -11 -7 -17 -4 -7 4 -4 11 8 18 24 14 29 36 12 49 -9 6 -8 7 5 3
10 -3 27 -1 37 4 13 7 21 7 25 0 11 -17 24 -11 20 10 -4 21 9 27 20 10z m52
-29 c0 -11 -5 -18 -9 -15 -4 3 -5 11 -1 19 7 21 12 19 10 -4z"/>
<path d="M3410 6120 c-13 -11 -18 -20 -12 -20 6 0 9 -8 6 -17 -5 -17 -5 -17 6
0 6 10 16 14 23 10 19 -11 60 -12 48 0 -5 5 -8 15 -7 21 2 6 1 7 -2 3 -2 -5
-12 -1 -21 7 -16 15 -20 14 -41 -4z m44 -9 c17 -19 17 -19 -1 -16 -10 2 -20 4
-23 5 -3 1 -9 2 -14 1 -5 -1 -4 5 4 13 15 20 13 20 34 -3z"/>
<path d="M3073 6161 c0 -11 5 -18 9 -15 4 3 5 11 1 19 -7 21 -12 19 -10 -4z"/>
<path d="M3315 6170 c3 -5 8 -10 11 -10 2 0 4 5 4 10 0 6 -5 10 -11 10 -5 0
-7 -4 -4 -10z"/>
<path d="M3350 6160 c-8 -5 -10 -10 -5 -10 6 0 17 5 25 10 8 5 11 10 5 10 -5
0 -17 -5 -25 -10z"/>
<path d="M3626 6158 c3 -5 10 -6 15 -3 13 9 11 12 -6 12 -8 0 -12 -4 -9 -9z"/>
<path d="M2695 6140 c-3 -5 -1 -10 4 -10 6 0 11 5 11 10 0 6 -2 10 -4 10 -3 0
-8 -4 -11 -10z"/>
<path d="M3096 6143 c-3 -3 -6 -11 -6 -17 0 -7 3 -7 8 1 5 7 13 9 21 4 11 -7
9 -10 -8 -16 -11 -3 -21 -11 -21 -16 0 -5 11 -2 25 7 14 9 25 18 25 20 0 8
-38 23 -44 17z"/>
<path d="M3230 6115 c0 -8 2 -15 4 -15 2 0 6 7 10 15 3 8 1 15 -4 15 -6 0 -10
-7 -10 -15z"/>
<path d="M3266 6115 c-11 -8 -18 -17 -15 -19 2 -3 15 4 29 14 14 11 21 20 15
19 -5 0 -19 -6 -29 -14z"/>
<path d="M3190 6110 c0 -5 5 -10 10 -10 6 0 10 5 10 10 0 6 -4 10 -10 10 -5 0
-10 -4 -10 -10z"/>
<path d="M3126 6094 c-11 -8 -16 -14 -10 -14 13 0 39 18 34 24 -3 2 -14 -2
-24 -10z"/>
<path d="M3290 6097 c-8 -7 -16 -21 -18 -32 l-2 -20 11 20 c7 11 17 23 23 27
6 4 8 9 6 12 -3 2 -12 -1 -20 -7z"/>
<path d="M2653 6087 c0 -8 6 -14 14 -14 9 0 10 4 2 14 -6 7 -12 13 -14 13 -1
0 -2 -6 -2 -13z"/>
<path d="M2695 6080 c-3 -5 -1 -10 4 -10 6 0 11 5 11 10 0 6 -2 10 -4 10 -3 0
-8 -4 -11 -10z"/>
<path d="M3036 6082 c-3 -5 1 -9 9 -9 8 0 12 4 9 9 -3 4 -7 8 -9 8 -2 0 -6 -4
-9 -8z"/>
<path d="M3170 6080 c0 -5 5 -10 10 -10 6 0 10 5 10 10 0 6 -4 10 -10 10 -5 0
-10 -4 -10 -10z"/>
<path d="M3220 6080 c8 -5 22 -9 30 -9 10 0 8 3 -5 9 -27 12 -43 12 -25 0z"/>
<path d="M3078 6073 c7 -3 16 -2 19 1 4 3 -2 6 -13 5 -11 0 -14 -3 -6 -6z"/>
<path d="M2725 6060 c-3 -6 1 -7 9 -4 18 7 21 14 7 14 -6 0 -13 -4 -16 -10z"/>
<path d="M3110 6059 c0 -5 4 -8 9 -5 10 7 25 -20 25 -49 1 -27 31 -26 31 1 0
23 22 54 38 54 5 0 2 -10 -9 -21 -14 -16 -15 -23 -6 -26 6 -3 12 -9 12 -14 0
-6 -4 -7 -10 -4 -10 6 -14 -8 -10 -34 1 -13 -1 -13 -15 -1 -22 18 -34 0 -29
-42 3 -25 1 -28 -10 -19 -10 9 -16 9 -21 1 -4 -6 -4 -14 -1 -17 3 -4 6 -1 6 6
0 7 5 9 12 5 8 -5 5 -11 -7 -20 -10 -8 -16 -17 -12 -20 4 -4 16 4 28 17 18 21
20 21 14 4 -4 -11 -8 -32 -10 -46 -1 -14 -5 -31 -9 -37 -4 -7 -2 -12 3 -12 6
0 11 7 11 15 0 8 5 15 10 15 12 0 13 -11 0 -30 -6 -10 -3 -21 12 -37 18 -19
19 -23 5 -29 -8 -3 -24 -1 -36 5 -25 14 -31 14 -31 1 0 -5 3 -9 8 -8 4 1 17
-2 30 -6 23 -8 56 9 47 24 -3 4 2 10 9 13 25 10 14 -31 -11 -44 -27 -14 -27
-41 0 -45 9 -1 15 2 11 7 -3 5 0 9 7 9 7 0 9 3 6 6 -4 4 -13 1 -22 -6 -8 -7
-15 -8 -15 -2 0 14 25 33 33 25 6 -6 9 4 6 24 0 3 6 10 15 15 9 5 16 14 16 21
0 8 -3 7 -9 -2 -7 -11 -11 -9 -21 9 -10 20 -10 21 8 16 13 -5 22 -1 26 10 6
15 4 15 -11 3 -15 -12 -16 -12 -10 4 4 10 7 21 7 23 0 3 5 2 10 -1 13 -8 24
20 16 41 -5 13 -9 14 -22 4 -8 -7 -13 -19 -10 -26 7 -18 -28 -59 -42 -50 -18
11 -14 24 6 22 11 -1 17 6 17 20 0 11 7 29 15 40 14 17 14 18 -2 6 -15 -12
-17 -11 -15 7 1 15 6 19 19 15 10 -3 18 0 18 6 0 6 -5 8 -11 4 -7 -4 -10 1 -7
11 1 10 9 20 16 23 7 2 11 -2 10 -8 -2 -7 4 -15 12 -17 13 -4 13 -3 0 6 -8 6
-11 11 -5 11 5 0 4 5 -3 12 -8 8 -15 8 -26 -1 -12 -10 -15 -9 -13 8 1 11 7 23
14 25 7 3 13 10 13 16 0 5 -9 2 -19 -7 -11 -9 -18 -20 -15 -25 3 -4 1 -8 -4
-8 -20 0 -21 29 -1 35 18 6 19 9 6 23 -13 15 -13 19 0 31 10 9 12 16 4 24 -7
7 -17 5 -31 -8 -11 -10 -20 -13 -20 -7 0 7 -5 12 -11 12 -8 0 -8 -5 1 -15 8
-10 9 -15 2 -15 -6 0 -16 9 -22 20 -11 21 -30 27 -30 9z m60 -59 c0 -5 -4 -10
-10 -10 -5 0 -10 5 -10 10 0 6 5 10 10 10 6 0 10 -4 10 -10z m10 -60 c0 -5 -7
-7 -15 -4 -8 4 -12 10 -9 15 6 11 24 2 24 -11z m30 -34 c-7 -9 -9 -16 -5 -16
4 0 2 -7 -5 -15 -9 -11 -9 -15 -1 -15 8 0 8 -4 -1 -14 -16 -18 -29 -11 -22 12
5 14 4 15 -5 2 -6 -9 -7 -18 -1 -24 16 -16 11 -29 -5 -16 -9 8 -13 20 -9 29
11 27 13 61 3 61 -6 0 -7 5 -4 10 4 6 11 8 16 5 5 -4 12 1 15 10 6 15 8 15 22
1 13 -12 13 -18 2 -30z m50 -68 c0 -16 -3 -19 -11 -11 -6 6 -8 16 -5 22 11 17
16 13 16 -11z m-50 -18 c0 -5 -4 -10 -10 -10 -5 0 -10 5 -10 10 0 6 5 10 10
10 6 0 10 -4 10 -10z m0 -63 c0 -4 -4 -5 -10 -2 -5 3 -10 1 -10 -6 0 -9 -3 -9
-14 1 -8 6 -12 18 -10 25 5 11 10 12 25 2 10 -6 19 -15 19 -20z"/>
<path d="M3185 5921 c-3 -5 0 -13 6 -17 7 -4 9 -3 5 4 -3 5 0 13 6 15 9 4 10
6 1 6 -6 1 -14 -3 -18 -8z"/>
<path d="M3177 5885 c3 -8 9 -12 14 -9 12 7 11 11 -5 17 -10 4 -13 1 -9 -8z"/>
<path d="M3516 6053 c-6 -14 -5 -15 5 -6 7 7 10 15 7 18 -3 3 -9 -2 -12 -12z"/>
<path d="M3085 6040 c3 -5 8 -10 11 -10 2 0 4 5 4 10 0 6 -5 10 -11 10 -5 0
-7 -4 -4 -10z"/>
<path d="M3240 6046 c0 -2 7 -7 16 -10 8 -3 12 -2 9 4 -6 10 -25 14 -25 6z"/>
<path d="M3325 6040 c-3 -5 -2 -10 4 -10 5 0 13 5 16 10 3 6 2 10 -4 10 -5 0
-13 -4 -16 -10z"/>
<path d="M3110 6031 c0 -5 5 -13 10 -16 6 -3 10 -2 10 4 0 5 -4 13 -10 16 -5
3 -10 2 -10 -4z"/>
<path d="M3080 6018 c9 -7 16 -20 16 -28 0 -8 7 -28 16 -45 13 -23 17 -25 16
-10 0 11 0 25 2 30 6 23 -1 34 -17 28 -10 -4 -14 -2 -9 5 4 6 -3 16 -16 22
-19 9 -21 9 -8 -2z m50 -42 c0 -11 -19 -15 -25 -6 -3 5 1 10 9 10 9 0 16 -2
16 -4z"/>
<path d="M3230 6020 c0 -5 5 -10 10 -10 6 0 10 5 10 10 0 6 -4 10 -10 10 -5 0
-10 -4 -10 -10z"/>
<path d="M3350 6024 c0 -5 7 -18 15 -28 8 -11 15 -16 15 -10 0 5 -7 18 -15 28
-8 11 -15 16 -15 10z"/>
<path d="M2730 6011 c0 -7 -5 -9 -12 -5 -7 5 -8 3 -3 -5 5 -9 10 -10 18 -2 6
6 8 14 4 18 -4 3 -7 1 -7 -6z"/>
<path d="M3054 6001 c0 -11 5 -17 13 -14 10 4 11 9 2 19 -15 18 -15 18 -15 -5z"/>
<path d="M2834 5996 c1 -8 5 -18 8 -22 4 -3 5 1 4 10 -1 8 -5 18 -8 22 -4 3
-5 -1 -4 -10z"/>
<path d="M3313 5995 c0 -8 4 -12 9 -9 5 3 6 10 3 15 -9 13 -12 11 -12 -6z"/>
<path d="M3410 6000 c0 -5 5 -10 10 -10 6 0 10 5 10 10 0 6 -4 10 -10 10 -5 0
-10 -4 -10 -10z"/>
<path d="M3468 5993 c-4 -13 0 -19 13 -19 14 0 16 3 6 16 -6 8 -12 16 -13 18
-1 1 -4 -5 -6 -15z"/>
<path d="M3513 5993 c0 -9 4 -10 14 -2 7 6 13 12 13 14 0 1 -6 2 -13 2 -8 0
-14 -6 -14 -14z"/>
<path d="M2990 5985 c0 -7 30 -13 34 -7 3 4 -4 9 -15 9 -10 1 -19 0 -19 -2z"/>
<path d="M3334 5969 c-3 -6 -2 -15 3 -20 5 -5 9 -1 9 11 0 23 -2 24 -12 9z"/>
<path d="M3395 5971 c-3 -5 -2 -12 3 -15 5 -3 9 1 9 9 0 17 -3 19 -12 6z"/>
<path d="M2766 5962 c-3 -5 1 -9 9 -9 8 0 15 4 15 9 0 4 -4 8 -9 8 -6 0 -12
-4 -15 -8z"/>
<path d="M2856 5962 c-3 -5 1 -9 9 -9 8 0 12 4 9 9 -3 4 -7 8 -9 8 -2 0 -6 -4
-9 -8z"/>
<path d="M3056 5954 c-5 -14 -4 -15 8 -5 10 8 16 9 19 1 3 -6 4 -5 3 2 -4 19
-23 20 -30 2z"/>
<path d="M3270 5959 c0 -5 5 -7 10 -4 6 3 10 8 10 11 0 2 -4 4 -10 4 -5 0 -10
-5 -10 -11z"/>
<path d="M3299 5953 c-13 -16 -12 -17 4 -4 9 7 17 15 17 17 0 8 -8 3 -21 -13z"/>
<path d="M2814 5938 c-5 -7 -2 -8 6 -3 9 5 11 1 6 -16 -3 -13 -3 -18 0 -11 3
6 9 10 13 8 4 -3 8 1 8 9 0 18 -24 28 -33 13z"/>
<path d="M2996 5933 c-6 -14 -5 -15 5 -6 7 7 10 15 7 18 -3 3 -9 -2 -12 -12z"/>
<path d="M2790 5920 c0 -5 5 -10 11 -10 5 0 7 5 4 10 -3 6 -8 10 -11 10 -2 0
-4 -4 -4 -10z"/>
<path d="M3056 5922 c-3 -5 1 -9 9 -9 8 0 12 4 9 9 -3 4 -7 8 -9 8 -2 0 -6 -4
-9 -8z"/>
<path d="M3090 5920 c0 -5 5 -10 10 -10 6 0 10 5 10 10 0 6 -4 10 -10 10 -5 0
-10 -4 -10 -10z"/>
<path d="M3310 5921 c0 -6 4 -13 10 -16 6 -3 7 1 4 9 -7 18 -14 21 -14 7z"/>
<path d="M2761 5896 c-9 -11 -9 -16 1 -22 7 -4 10 -4 6 1 -4 4 -3 14 3 22 6 7
9 13 6 13 -2 0 -10 -6 -16 -14z"/>
<path d="M2835 5891 c-3 -5 -2 -12 3 -15 5 -3 9 1 9 9 0 17 -3 19 -12 6z"/>
<path d="M2781 5874 c0 -11 3 -14 6 -6 3 7 2 16 -1 19 -3 4 -6 -2 -5 -13z"/>
<path d="M2866 5879 c2 -4 13 -7 24 -6 23 2 17 10 -10 12 -10 1 -17 -2 -14 -6z"/>
<path d="M3272 5870 c7 -10 14 -18 15 -16 6 6 -9 36 -18 36 -5 0 -4 -9 3 -20z"/>
<path d="M2815 5861 c-3 -6 4 -15 16 -21 12 -7 19 -8 15 -2 -3 6 0 13 6 16 7
3 2 3 -11 0 -16 -4 -21 -3 -17 5 4 6 5 11 2 11 -3 0 -7 -4 -11 -9z"/>
<path d="M2790 5840 c0 -5 5 -10 11 -10 5 0 7 5 4 10 -3 6 -8 10 -11 10 -2 0
-4 -4 -4 -10z"/>
<path d="M3085 5839 c-6 -8 -4 -10 5 -4 10 6 12 4 6 -11 -6 -15 -5 -17 5 -6 9
9 10 15 2 23 -8 8 -13 7 -18 -2z"/>
<path d="M2776 5817 c3 -10 9 -15 12 -12 3 3 0 11 -7 18 -10 9 -11 8 -5 -6z"/>
<path d="M2811 5811 c-8 -14 -7 -20 3 -24 10 -4 12 0 8 15 -4 16 -2 19 8 13 9
-5 11 -4 6 3 -10 16 -14 15 -25 -7z"/>
<path d="M3107 5804 c-13 -18 -14 -22 -3 -18 8 3 17 13 20 21 10 25 3 23 -17
-3z"/>
<path d="M2753 5792 c-1 -22 0 -24 9 -8 6 10 6 22 2 26 -5 5 -10 -3 -11 -18z"/>
<path d="M3275 5809 c-4 -6 -5 -12 -2 -15 2 -3 7 2 10 11 7 17 1 20 -8 4z"/>
<path d="M2877 5793 c-10 -9 -9 -23 1 -23 5 0 9 7 9 15 0 17 -1 18 -10 8z"/>
<path d="M2775 5781 c-9 -15 15 -25 28 -12 9 9 7 10 -7 5 -13 -5 -17 -4 -12 4
4 7 5 12 2 12 -3 0 -7 -4 -11 -9z"/>
<path d="M2835 5769 c-4 -6 -5 -12 -2 -15 2 -3 7 2 10 11 7 17 1 20 -8 4z"/>
<path d="M3117 5769 c7 -7 15 -10 18 -7 3 3 -2 9 -12 12 -14 6 -15 5 -6 -5z"/>
<path d="M3007 5759 c7 -7 15 -10 18 -7 3 3 -2 9 -12 12 -14 6 -15 5 -6 -5z"/>
<path d="M3070 5763 c0 -6 8 -17 18 -24 16 -13 16 -13 2 6 -8 11 -16 22 -17
24 -2 2 -3 0 -3 -6z"/>
<path d="M3268 5763 c7 -3 16 -2 19 1 4 3 -2 6 -13 5 -11 0 -14 -3 -6 -6z"/>
<path d="M2746 5743 c-6 -14 -5 -15 5 -6 7 7 10 15 7 18 -3 3 -9 -2 -12 -12z"/>
<path d="M3130 5745 c0 -2 10 -10 23 -16 20 -11 21 -11 8 4 -13 16 -31 23 -31
12z"/>
<path d="M3270 5746 c0 -2 7 -7 16 -10 8 -3 12 -2 9 4 -6 10 -25 14 -25 6z"/>
<path d="M2665 5720 c-3 -6 1 -7 9 -4 18 7 21 14 7 14 -6 0 -13 -4 -16 -10z"/>
<path d="M2713 5715 c0 -8 4 -12 9 -9 4 3 8 9 8 15 0 5 -4 9 -8 9 -5 0 -9 -7
-9 -15z"/>
<path d="M2770 5720 c0 -4 7 -7 15 -6 23 3 26 12 5 13 -11 1 -20 -2 -20 -7z"/>
<path d="M3251 5727 c2 -1 13 -9 24 -17 19 -14 19 -14 6 3 -7 9 -18 17 -24 17
-6 0 -8 -1 -6 -3z"/>
<path d="M3233 5695 c-3 -9 -3 -19 1 -22 3 -4 6 1 6 10 0 8 6 18 13 20 9 4 9
6 -1 6 -7 1 -15 -6 -19 -14z"/>
<path d="M3137 5679 c4 -13 8 -18 11 -10 2 7 -1 18 -6 23 -8 8 -9 4 -5 -13z"/>
<path d="M2699 5673 c-13 -16 -12 -17 4 -4 16 13 21 21 13 21 -2 0 -10 -8 -17
-17z"/>
<path d="M3250 5676 c0 -20 17 -29 26 -15 5 8 3 9 -6 4 -10 -6 -12 -4 -7 8 3
10 2 17 -3 17 -6 0 -10 -6 -10 -14z"/>
<path d="M3280 5686 c0 -2 8 -10 18 -17 15 -13 16 -12 3 4 -13 16 -21 21 -21
13z"/>
<path d="M2730 5659 c0 -5 5 -7 10 -4 6 3 10 8 10 11 0 2 -4 4 -10 4 -5 0 -10
-5 -10 -11z"/>
<path d="M3350 5660 c0 -5 5 -10 11 -10 5 0 7 5 4 10 -3 6 -8 10 -11 10 -2 0
-4 -4 -4 -10z"/>
<path d="M3219 5648 c-1 -7 -1 -16 0 -20 2 -12 -17 -10 -22 2 -3 6 -4 5 -3 -2
4 -22 29 -14 32 10 2 12 2 22 -1 22 -3 0 -6 -6 -6 -12z"/>
<path d="M2630 5638 c0 -4 4 -8 9 -8 6 0 12 4 15 8 3 5 -1 9 -9 9 -8 0 -15 -4
-15 -9z"/>
<path d="M2681 5633 c-5 -10 -13 -17 -18 -15 -4 2 -10 -5 -12 -15 -2 -10 -8
-21 -15 -26 -6 -4 1 -5 16 -3 15 2 29 0 32 -5 2 -5 3 -4 2 3 -2 7 -9 12 -15
11 -6 -2 -11 6 -11 18 0 11 4 18 9 14 6 -3 15 4 21 15 13 24 5 27 -9 3z"/>
<path d="M3126 5639 c4 -8 30 -6 38 2 3 3 -5 5 -19 5 -13 0 -22 -3 -19 -7z"/>
<path d="M3240 5640 c0 -5 5 -10 11 -10 5 0 7 5 4 10 -3 6 -8 10 -11 10 -2 0
-4 -4 -4 -10z"/>
<path d="M3288 5632 c4 -10 7 -12 10 -4 2 7 9 9 15 5 7 -3 8 -2 4 2 -14 16
-36 14 -29 -3z"/>
<path d="M3315 5610 c-4 -6 -11 -7 -17 -4 -7 4 -8 2 -4 -5 6 -9 11 -9 22 0 14
11 18 19 10 19 -3 0 -8 -5 -11 -10z"/>
<path d="M2690 5602 c0 -5 7 -9 15 -9 8 0 12 4 9 9 -3 4 -9 8 -15 8 -5 0 -9
-4 -9 -8z"/>
<path d="M3170 5602 c0 -5 7 -9 15 -9 8 0 12 4 9 9 -3 4 -9 8 -15 8 -5 0 -9
-4 -9 -8z"/>
<path d="M3220 5600 c-18 -12 -2 -12 25 0 13 6 15 9 5 9 -8 0 -22 -4 -30 -9z"/>
<path d="M3135 5580 c3 -5 8 -10 11 -10 2 0 4 5 4 10 0 6 -5 10 -11 10 -5 0
-7 -4 -4 -10z"/>
<path d="M3270 5581 c0 -6 4 -12 8 -15 5 -3 9 1 9 9 0 8 -4 15 -9 15 -4 0 -8
-4 -8 -9z"/>
<path d="M3231 5568 c-1 -20 14 -24 25 -6 4 6 3 8 -4 4 -5 -3 -13 0 -15 6 -3
8 -6 6 -6 -4z"/>
<path d="M2679 5533 c-13 -16 -12 -17 4 -4 9 7 17 15 17 17 0 8 -8 3 -21 -13z"/>
<path d="M3175 5540 c3 -5 8 -10 11 -10 2 0 4 5 4 10 0 6 -5 10 -11 10 -5 0
-7 -4 -4 -10z"/>
<path d="M3330 5540 c0 -5 5 -10 11 -10 5 0 7 5 4 10 -3 6 -8 10 -11 10 -2 0
-4 -4 -4 -10z"/>
<path d="M3253 5526 c0 -14 50 -17 63 -4 4 4 -4 5 -16 3 -13 -3 -29 0 -35 5
-8 7 -12 5 -12 -4z"/>
<path d="M3059 5503 c-1 -5 0 -16 1 -27 1 -16 0 -16 -13 -5 -8 8 -12 18 -9 23
3 5 0 6 -7 2 -6 -4 -9 -12 -6 -17 11 -16 -7 -10 -21 9 -13 16 -14 16 -8 0 8
-23 -12 -24 -24 -2 -6 11 -11 13 -16 5 -4 -6 -2 -11 3 -11 6 0 11 -4 11 -8 0
-4 -16 -7 -35 -7 -27 1 -34 -2 -31 -12 4 -8 1 -11 -5 -8 -6 4 -8 13 -5 21 3 7
1 16 -5 19 -5 4 -8 1 -7 -6 2 -6 -3 -14 -10 -16 -8 -3 -10 1 -5 13 6 15 3 15
-17 -3 -21 -21 -25 -21 -58 -8 -31 14 -33 13 -22 -1 11 -12 11 -15 -1 -12 -8
2 -19 10 -26 18 -15 19 -17 6 -2 -23 9 -19 8 -20 -3 -7 -22 25 -56 41 -63 30
-4 -6 -10 -8 -15 -5 -4 3 -6 -5 -3 -17 4 -19 3 -20 -6 -8 -9 13 -11 13 -11 1
0 -11 -4 -10 -13 4 -13 17 -15 17 -30 -6 -14 -19 -17 -20 -17 -6 0 10 -5 15
-10 12 -6 -4 -7 -12 -4 -18 4 -7 4 -9 -1 -5 -4 4 -15 2 -23 -5 -11 -8 -14 -8
-9 0 4 6 3 14 -3 18 -5 3 -10 1 -10 -6 0 -7 -8 -5 -21 7 -14 13 -20 14 -17 4
4 -16 -32 -20 -45 -5 -5 6 -7 3 -3 -7 4 -13 0 -18 -16 -18 -16 0 -18 3 -9 13
8 10 7 14 -4 14 -7 0 -14 -3 -13 -6 2 -20 -5 -22 -24 -5 -22 19 -22 19 -8 0
14 -18 13 -19 -2 -13 -12 4 -15 2 -11 -9 3 -7 1 -14 -5 -14 -6 0 -13 6 -15 13
-4 10 -6 10 -6 0 -1 -7 -8 -13 -16 -13 -8 0 -15 6 -16 13 0 6 -5 2 -11 -10
-10 -21 -12 -22 -25 -5 -8 9 -11 11 -7 3 4 -9 2 -12 -7 -9 -8 3 -13 11 -11 18
2 11 0 11 -11 1 -8 -6 -19 -10 -25 -9 -5 2 -10 -1 -11 -7 -1 -5 3 -10 8 -10 5
0 11 -2 13 -5 1 -3 1 -4 -1 -3 -2 2 -10 -5 -18 -15 -12 -16 -13 -16 -7 1 4 12
1 17 -11 17 -10 0 -13 5 -9 12 4 7 3 8 -5 4 -9 -6 -9 -12 1 -24 11 -15 11 -15
-2 -6 -8 6 -24 14 -34 18 -17 6 -17 5 -5 -10 13 -16 12 -16 -8 -6 -16 9 -24 9
-29 0 -4 -6 -3 -8 4 -4 6 3 13 2 17 -3 3 -6 -4 -8 -16 -6 -13 3 -26 10 -31 17
-5 9 -8 8 -8 -5 0 -15 -3 -16 -21 -7 -11 7 -23 9 -27 6 -3 -3 0 -6 6 -6 9 0 9
-5 0 -19 -6 -11 -20 -19 -29 -18 -18 1 -16 12 2 12 15 0 10 19 -6 21 -9 1 -12
-2 -8 -9 4 -7 0 -8 -11 -4 -10 4 -15 3 -11 -3 3 -6 3 -15 -1 -22 -5 -7 -11 -5
-21 7 -12 18 -13 17 -13 -5 0 -23 0 -23 -16 -4 -12 14 -14 15 -11 3 5 -14 -1
-16 -33 -15 -22 1 -37 -1 -34 -6 3 -5 9 -6 13 -4 4 3 13 0 21 -6 13 -8 12 -9
-1 -5 -9 3 -21 1 -27 -5 -8 -8 -13 -7 -18 5 -3 9 -10 17 -16 17 -5 0 -7 -4 -4
-8 2 -4 -4 -14 -16 -21 -11 -7 -17 -8 -13 -2 3 6 2 11 -3 11 -16 0 -22 -13
-12 -25 7 -8 5 -12 -5 -12 -8 0 -12 4 -10 8 3 3 -4 9 -15 12 -16 4 -18 2 -11
-11 8 -15 3 -17 -30 -16 -36 2 -39 0 -33 -20 6 -19 5 -19 -15 4 -12 15 -20 19
-19 10 2 -8 8 -18 13 -22 6 -4 2 -8 -8 -8 -11 0 -15 -4 -11 -12 4 -7 3 -8 -4
-4 -6 4 -10 12 -8 19 1 7 1 9 -1 4 -3 -4 -10 -4 -15 -1 -6 4 -8 2 -4 -4 3 -6
2 -13 -4 -17 -5 -3 -10 -2 -10 4 0 6 -7 8 -16 4 -11 -4 -12 -8 -4 -13 8 -5 7
-9 -5 -14 -9 -3 -13 -11 -9 -17 4 -8 3 -9 -5 -5 -6 4 -9 12 -6 17 4 5 -3 5
-17 0 -13 -4 -23 -13 -23 -19 0 -6 -4 -14 -9 -19 -5 -5 -6 -3 -2 5 4 6 2 12
-3 12 -6 0 -11 -6 -11 -14 0 -7 -13 -19 -30 -26 -16 -7 -27 -17 -24 -22 4 -6
-4 -5 -16 2 -12 7 -20 8 -16 2 9 -15 -32 -46 -62 -47 -17 0 -27 -6 -28 -15 -2
-36 -5 -41 -15 -34 -8 4 -7 9 2 16 11 8 11 9 -1 5 -8 -2 -16 -9 -16 -15 -1 -7
-2 -18 -3 -24 -1 -10 -3 -10 -10 1 -6 9 -11 10 -15 2 -4 -6 -4 -16 0 -23 5 -7
3 -8 -6 -3 -10 6 -12 4 -7 -9 4 -9 3 -15 -2 -12 -5 3 -14 -1 -21 -10 -7 -8
-19 -13 -26 -10 -9 3 -11 -3 -8 -20 3 -17 0 -24 -11 -24 -9 0 -13 4 -10 10 3
6 -1 7 -9 4 -13 -5 -12 -9 5 -23 21 -17 21 -17 -10 -15 -17 1 -28 -2 -25 -7 3
-5 9 -7 13 -5 4 3 8 -1 8 -9 0 -8 -4 -12 -9 -9 -4 3 -8 0 -8 -6 0 -6 -5 -8
-10 -5 -6 3 -10 2 -10 -4 0 -5 6 -12 13 -14 9 -4 9 -6 0 -6 -7 -1 -13 -6 -13
-12 0 -5 5 -7 12 -3 7 5 8 3 3 -6 -6 -10 -13 -8 -28 11 -17 20 -19 21 -13 4 8
-23 9 -25 7 -43 0 -7 -5 -10 -11 -7 -5 3 -7 0 -4 -9 3 -8 11 -14 17 -12 7 1 9
1 4 -1 -4 -3 -4 -10 -1 -15 5 -7 2 -8 -6 -3 -10 6 -12 4 -7 -9 4 -10 3 -15 -3
-11 -6 3 -10 -1 -10 -10 0 -10 -5 -13 -12 -9 -7 4 -10 4 -6 -1 4 -4 3 -14 -4
-22 -6 -8 -7 -13 -2 -12 21 4 26 -2 14 -16 -10 -11 -9 -17 3 -29 8 -8 18 -12
22 -8 4 4 3 -3 -4 -15 -15 -29 -15 -66 1 -57 7 4 8 3 4 -4 -4 -7 -14 -12 -22
-12 -14 0 -15 -32 -1 -46 3 -4 4 3 2 16 -4 18 -2 20 11 9 13 -10 12 -14 -2
-30 -10 -11 -14 -19 -9 -19 4 0 1 -8 -6 -17 -10 -11 -10 -14 -1 -9 6 4 12 3
12 -3 0 -5 -5 -11 -12 -13 -7 -3 -5 -7 6 -11 10 -4 15 -3 11 3 -3 6 -2 10 4
10 5 0 9 -9 8 -19 0 -11 -5 -17 -9 -15 -4 3 -8 0 -8 -5 0 -6 5 -11 12 -11 6 0
8 -3 5 -7 -4 -3 1 -15 10 -26 10 -11 12 -17 6 -13 -9 5 -13 -1 -13 -22 0 -16
3 -32 7 -36 11 -11 12 -36 1 -36 -6 0 -8 7 -5 14 4 10 1 13 -8 10 -11 -5 -12
-10 -3 -24 7 -10 16 -16 21 -13 4 3 8 -1 6 -8 -3 -25 1 -40 9 -35 5 3 9 -1 9
-9 0 -18 -9 -19 -25 -3 -8 8 -12 8 -12 1 0 -6 7 -14 16 -17 8 -3 12 -10 9 -16
-3 -5 -1 -10 6 -10 8 0 7 -5 -2 -17 -12 -15 -12 -16 5 -10 14 6 17 4 12 -9 -4
-9 -1 -24 6 -33 7 -9 8 -13 3 -8 -4 4 -17 0 -27 -9 -14 -13 -21 -14 -32 -5
-12 10 -13 8 -9 -10 4 -15 2 -20 -5 -15 -6 3 -13 2 -17 -4 -4 -6 -10 -8 -15
-5 -5 3 -7 -3 -5 -15 2 -11 -1 -23 -7 -26 -7 -4 -8 -2 -4 4 4 7 2 12 -3 12 -6
0 -11 -7 -11 -15 0 -18 -11 -19 -29 -2 -11 10 -13 9 -8 -5 4 -11 1 -15 -11
-13 -9 1 -15 9 -14 16 2 8 0 10 -5 6 -4 -5 -8 -12 -8 -15 0 -4 -4 -14 -10 -22
-8 -13 -7 -13 8 -1 9 7 17 9 17 3 0 -21 -56 -30 -63 -9 -2 6 -2 2 -1 -10 2
-12 -1 -25 -8 -29 -7 -4 -8 -3 -4 4 4 7 2 12 -3 12 -6 0 -11 -5 -11 -11 0 -6
-7 -8 -16 -5 -14 6 -15 4 -4 -9 11 -13 11 -16 -1 -13 -8 2 -17 8 -21 13 -4 6
-8 -1 -8 -14 0 -16 -4 -21 -15 -17 -8 3 -15 1 -15 -5 0 -6 -5 -7 -12 -3 -8 5
-9 2 -5 -9 4 -10 2 -16 -6 -14 -7 1 -11 -4 -9 -11 1 -8 -2 -11 -8 -7 -8 5 -7
11 1 21 10 12 9 13 -5 8 -10 -4 -16 -14 -13 -23 3 -12 -3 -17 -17 -19 -17 -1
-18 1 -6 9 13 9 13 10 0 6 -8 -2 -15 -13 -14 -24 0 -15 -5 -19 -23 -15 -13 3
-23 -1 -23 -7 0 -7 5 -9 12 -5 7 4 8 3 4 -5 -6 -8 -12 -9 -20 -2 -9 8 -19 4
-36 -14 -13 -13 -27 -22 -31 -19 -15 9 -10 -4 8 -22 17 -17 17 -18 -1 -11 -18
7 -50 -15 -54 -37 -1 -9 -19 -16 -49 -18 -8 -1 -9 -9 -2 -27 l9 -26 -19 22
c-16 19 -20 20 -25 7 -4 -9 -2 -13 5 -8 7 4 10 1 7 -7 -3 -8 -10 -14 -16 -14
-5 0 -14 -4 -19 -9 -5 -5 -3 -6 5 -2 6 4 12 2 12 -3 0 -6 -10 -11 -22 -11 -19
0 -20 -2 -8 -10 13 -8 12 -10 -3 -10 -10 0 -15 -4 -12 -10 3 -5 2 -10 -4 -10
-5 0 -12 6 -14 13 -4 9 -6 9 -6 0 -1 -6 4 -15 9 -18 17 -10 -8 -35 -27 -28
-10 4 -14 2 -10 -4 3 -5 -5 -16 -18 -23 -23 -12 -23 -14 -7 -27 9 -8 12 -12 6
-9 -7 3 -15 -1 -18 -9 -3 -8 -11 -14 -17 -13 -9 2 -12 -115 -11 -482 1 -267 2
-502 3 -524 2 -36 3 -37 16 -20 13 18 14 17 8 -7 -4 -17 -2 -30 6 -34 8 -6 10
-4 4 5 -5 9 -4 11 3 6 7 -4 17 -17 24 -29 10 -20 10 -21 -6 -8 -9 8 -19 11
-22 8 -3 -3 8 -13 25 -22 33 -17 42 -31 14 -21 -16 5 -16 4 0 -8 11 -8 24 -13
31 -10 7 3 12 -5 13 -18 2 -18 0 -20 -7 -8 -5 8 -10 11 -10 5 1 -13 36 -55 46
-55 4 0 -1 9 -11 20 -10 11 -13 20 -7 20 7 0 12 -5 12 -11 0 -5 4 -8 8 -5 4 2
9 -4 9 -15 1 -10 -3 -19 -9 -19 -6 0 -8 -3 -5 -6 4 -4 14 -1 22 6 14 12 15 9
10 -21 -4 -23 -2 -29 4 -19 5 8 8 17 5 21 -2 4 1 11 7 15 8 4 9 3 5 -5 -4 -6
-1 -14 7 -17 8 -3 13 -17 12 -34 -1 -16 2 -27 7 -24 5 4 7 12 4 20 -3 7 -1 16
5 19 5 4 9 3 8 -2 -4 -22 2 -34 14 -27 7 5 6 0 -3 -11 -8 -10 -10 -16 -4 -12
6 3 20 0 30 -8 18 -13 18 -14 -6 -9 -22 4 -23 3 -5 -5 11 -5 30 -10 43 -10 12
-1 22 -4 22 -9 0 -4 11 -19 24 -34 14 -14 22 -29 19 -32 -4 -3 -1 -6 5 -6 5 0
13 6 15 13 5 10 11 -16 9 -34 -1 -4 8 -5 18 -2 12 3 20 0 20 -6 0 -7 -4 -9
-10 -6 -6 4 -7 -1 -3 -11 4 -11 8 -13 11 -6 6 18 33 14 30 -4 -2 -10 4 -19 12
-21 13 -4 13 -3 0 7 -12 9 -10 10 10 4 29 -8 40 -22 33 -41 -3 -7 0 -13 7 -13
6 0 8 5 5 10 -3 6 -1 10 4 10 6 0 11 -5 11 -11 0 -8 6 -7 17 2 15 12 16 12 10
-5 -6 -14 -4 -17 9 -12 14 5 15 4 5 -8 -10 -12 -9 -14 6 -10 10 3 27 -2 38
-11 11 -9 14 -13 6 -9 -9 4 -12 3 -7 -4 4 -6 13 -9 21 -6 8 4 12 11 8 17 -3 6
-1 7 6 3 8 -6 9 -12 2 -20 -16 -19 -2 -27 23 -14 19 10 19 9 8 -4 -10 -13 -10
-18 -1 -24 8 -4 9 -3 5 4 -10 16 2 15 19 -2 8 -7 11 -17 7 -21 -4 -5 -1 -5 6
-1 9 6 10 11 3 20 -8 9 -7 13 4 13 8 0 12 -3 10 -7 -2 -3 1 -12 6 -20 7 -12
11 -13 18 -2 7 11 9 11 14 -1 4 -10 16 -14 32 -13 14 2 28 -1 32 -7 3 -6 1 -7
-5 -3 -7 4 -12 2 -12 -5 0 -9 -3 -9 -14 0 -10 8 -16 9 -21 1 -4 -6 -1 -9 7 -8
7 2 12 -3 10 -10 -1 -8 2 -11 9 -6 6 3 16 0 21 -7 8 -11 9 -10 4 3 -4 15 -2
16 19 6 13 -6 22 -14 20 -19 -3 -4 0 -11 6 -15 8 -4 9 -3 5 4 -4 7 -1 12 9 12
9 0 13 -5 9 -11 -3 -6 1 -10 12 -9 37 4 47 1 36 -12 -8 -10 -3 -13 21 -12 36
1 69 -15 60 -30 -4 -5 -1 -6 8 -1 22 14 48 13 42 -2 -4 -9 0 -11 13 -6 12 4
15 3 10 -5 -6 -11 5 -17 27 -13 4 0 7 -5 7 -12 0 -8 4 -7 10 3 7 11 10 11 10
2 0 -7 4 -10 10 -7 5 3 10 1 10 -4 0 -6 5 -11 11 -11 5 0 8 4 5 8 -3 5 1 9 9
9 11 0 12 -5 3 -20 -6 -13 -6 -17 0 -13 6 3 12 3 15 -1 2 -5 2 -3 1 4 -2 6 3
14 10 16 10 4 12 -1 9 -16 -4 -20 -3 -20 12 3 13 20 15 21 10 5 -4 -16 0 -21
20 -23 14 -1 25 4 25 11 0 8 3 8 9 -2 5 -8 14 -10 22 -5 11 6 11 4 0 -10 -10
-12 -16 -14 -21 -5 -6 8 -9 8 -14 0 -8 -12 3 -14 47 -11 17 1 27 -4 27 -12 0
-10 3 -9 10 2 6 9 10 11 10 3 0 -7 7 -10 17 -6 11 4 14 3 9 -5 -5 -8 -2 -10 8
-6 9 3 13 11 9 18 -9 14 28 -14 43 -34 13 -16 67 -23 57 -6 -4 5 7 1 23 -11
29 -20 60 -21 48 -1 -4 6 -10 5 -15 -3 -6 -10 -9 -10 -9 -2 0 20 22 27 32 9 7
-12 13 -14 22 -7 9 8 13 7 13 -4 0 -8 -3 -12 -7 -10 -4 2 -7 -2 -7 -10 0 -11
4 -12 13 -4 7 6 18 8 24 4 5 -3 10 0 10 7 0 10 2 10 9 -1 5 -8 7 -21 4 -30 -4
-11 0 -9 10 4 8 11 13 24 10 29 -4 5 -1 6 6 2 6 -4 9 -12 6 -17 -4 -5 -2 -9 4
-9 5 0 12 6 14 13 3 7 6 5 6 -5 1 -10 6 -18 12 -18 5 0 7 5 3 12 -4 6 -3 8 4
4 6 -3 14 -2 17 4 4 7 18 3 39 -10 18 -11 37 -16 41 -12 5 4 5 1 1 -6 -4 -7
-13 -9 -19 -6 -7 4 -8 3 -4 -1 14 -16 37 -14 38 3 0 14 2 14 6 2 9 -23 18 -26
83 -24 49 1 59 -1 50 -11 -8 -10 -8 -15 1 -21 7 -4 10 -3 7 2 -3 5 0 15 8 22
9 8 14 9 14 2 0 -6 4 -9 9 -5 5 3 13 0 17 -6 5 -8 3 -9 -6 -4 -9 5 -11 4 -6
-3 10 -17 26 -15 26 2 0 8 5 18 12 22 6 4 8 3 4 -4 -3 -6 -2 -13 4 -17 6 -4 8
-10 6 -14 -3 -4 1 -8 9 -8 8 0 12 4 9 9 -8 13 10 10 25 -5 9 -7 11 -7 8 -1 -9
15 20 27 29 12 5 -7 2 -8 -6 -3 -9 6 -11 4 -6 -4 5 -7 10 -10 13 -7 3 3 15 1
27 -5 19 -9 19 -9 4 4 -10 8 -18 18 -18 22 0 4 7 2 16 -6 13 -10 17 -10 25 2
7 11 9 11 9 0 0 -11 3 -11 16 -1 8 8 14 9 13 4 -4 -21 2 -35 11 -29 6 4 7 12
4 18 -4 7 -3 8 2 4 5 -5 9 -14 9 -20 0 -7 9 -11 19 -9 12 2 16 -1 10 -9 -4 -8
-3 -10 4 -5 6 4 8 14 5 24 -5 14 -4 15 8 6 8 -6 24 -10 36 -8 14 2 22 -1 20
-8 -3 -17 45 -17 65 0 16 13 18 13 24 -2 3 -9 10 -16 16 -16 5 0 6 5 3 10 -3
6 -1 10 4 10 6 0 11 -4 11 -10 0 -5 5 -10 11 -10 5 0 8 4 4 9 -3 5 0 13 6 17
8 5 9 3 4 -6 -5 -9 -2 -10 14 -5 13 4 21 2 21 -5 0 -8 7 -9 18 -5 26 11 72 14
72 4 0 -4 -12 -7 -27 -6 -14 1 -27 -4 -29 -11 -1 -7 0 -8 3 -2 3 7 10 4 19 -7
13 -17 14 -17 7 1 -4 14 -3 17 6 12 6 -4 19 -2 28 6 12 9 15 9 9 0 -4 -7 -2
-12 6 -13 7 0 21 -2 31 -4 9 -2 15 1 11 6 -8 14 6 31 19 21 7 -4 23 -9 37 -10
26 -2 65 -9 65 -12 0 -8 36 -6 42 2 3 6 2 8 -4 5 -5 -3 -10 0 -10 8 0 11 4 12
13 4 7 -6 21 -10 31 -9 30 4 44 0 39 -8 -3 -5 1 -9 9 -9 18 0 19 9 3 26 -7 8
1 5 17 -5 17 -10 33 -23 37 -29 5 -7 8 -6 8 1 0 6 -10 18 -21 26 -21 14 -21
14 -1 14 11 0 18 -4 15 -10 -3 -5 5 -7 20 -4 15 3 24 1 21 -3 -3 -5 0 -9 5 -9
6 0 11 3 11 8 0 4 10 13 23 21 l22 14 -20 -23 -20 -23 20 11 c11 5 23 10 28
11 4 1 8 1 10 2 25 7 47 7 47 -2 0 -5 -5 -7 -12 -3 -7 4 -8 3 -4 -5 10 -16 52
11 48 31 -2 7 0 10 4 6 4 -4 14 -2 23 4 15 12 15 11 0 -7 -28 -34 -30 -43 -12
-40 10 1 17 8 16 14 -3 10 11 15 31 12 5 -1 6 6 2 16 -6 17 -5 17 8 0 9 -12
16 -14 21 -8 11 19 25 12 26 -11 l0 -23 9 21 c5 12 15 26 22 30 10 6 10 4 -1
-9 -13 -17 -11 -19 24 -19 35 0 38 2 24 20 -12 15 -12 16 2 5 12 -10 18 -10
29 0 12 10 12 9 1 -5 -15 -21 -2 -24 18 -5 11 9 12 9 7 0 -5 -9 -2 -11 8 -7 9
3 13 11 9 18 -4 6 2 4 12 -4 17 -14 18 -13 12 3 -4 11 -3 16 3 12 6 -4 24 -10
40 -15 24 -7 28 -6 24 8 -5 13 -2 13 10 -2 9 -11 16 -14 16 -7 0 7 4 10 9 6 5
-3 12 3 14 12 4 17 5 17 6 1 0 -10 6 -18 12 -18 5 0 8 4 5 8 -3 5 1 9 9 9 8 0
12 -3 10 -7 -2 -4 3 -7 11 -7 9 0 13 6 10 14 -3 8 -2 12 3 8 5 -3 12 1 15 7 3
7 3 2 0 -12 -4 -18 -3 -21 4 -11 6 8 17 11 26 8 12 -5 16 -2 14 10 -2 9 3 17
10 19 7 1 8 0 2 -3 -5 -2 -7 -9 -4 -15 4 -5 17 0 32 14 17 15 21 16 12 4 -14
-18 -13 -18 9 -11 18 5 22 4 17 -6 -4 -8 -1 -6 7 4 15 18 32 24 22 7 -3 -6 -1
-10 4 -10 6 0 11 7 11 16 0 8 5 12 10 9 6 -4 7 -12 3 -18 -5 -8 -2 -8 9 0 8 7
19 9 23 5 5 -4 5 1 2 10 -4 13 -2 15 10 11 10 -4 14 -2 10 4 -5 8 1 7 17 0 13
-7 22 -16 18 -22 -3 -5 1 -4 10 2 8 7 19 9 23 5 5 -4 6 0 3 9 -4 9 2 21 15 29
21 12 21 12 7 -5 -14 -17 -13 -17 9 -10 18 5 22 4 16 -6 -4 -8 2 -3 13 10 14
18 21 21 27 11 6 -9 4 -11 -5 -5 -9 6 -11 4 -6 -4 6 -9 13 -8 29 6 11 10 18
13 14 7 -3 -6 0 -11 9 -11 10 0 12 7 8 20 -5 17 -4 18 9 6 8 -8 12 -18 9 -23
-3 -5 0 -6 6 -2 6 4 9 13 6 21 -5 13 19 15 53 4 6 -2 19 5 28 16 16 20 16 20
9 -4 -5 -21 -4 -22 9 -10 8 8 12 19 9 24 -3 6 5 1 18 -10 l23 -20 -13 24 c-9
18 -9 22 0 16 19 -11 70 -14 76 -4 3 5 10 7 15 4 5 -4 9 2 9 11 0 16 -1 16
-19 0 -17 -15 -19 -15 -25 -1 -3 10 -2 14 5 10 5 -4 16 -2 24 5 9 7 15 8 20 0
3 -5 11 -10 16 -10 6 0 8 4 5 8 -3 5 1 9 9 9 8 0 12 -3 10 -7 -2 -3 7 -6 20
-6 13 0 21 4 19 8 -3 5 -10 5 -16 2 -7 -4 -8 -2 -4 4 4 8 14 9 24 4 15 -7 27
-8 47 -3 3 0 0 11 -6 24 -11 19 -10 21 3 9 13 -10 17 -10 22 0 3 7 3 2 0 -12
l-6 -25 17 23 c13 17 20 21 28 13 6 -6 16 -11 21 -11 6 0 5 4 -2 9 -10 6 -9
10 7 14 13 3 19 1 14 -5 -3 -6 -1 -8 5 -4 5 3 12 1 14 -6 3 -7 7 -5 11 6 4 10
3 15 -3 11 -6 -3 -10 -1 -10 4 0 6 6 11 14 11 8 0 17 6 20 13 3 6 4 1 1 -13
-5 -25 -5 -25 6 -3 13 26 29 29 48 11 11 -10 13 -10 7 0 -9 16 6 16 23 0 11
-11 12 -9 2 8 -8 17 -7 25 3 33 9 8 13 7 13 -4 0 -8 -5 -11 -10 -8 -6 3 -7 1
-4 -5 8 -12 32 -10 44 3 4 4 2 5 -4 1 -8 -4 -13 -1 -13 9 0 9 5 13 10 10 6 -4
22 0 35 9 25 16 43 7 29 -16 -5 -7 -3 -8 5 -4 7 5 10 15 7 23 -4 9 1 17 14 20
11 3 17 10 13 17 -3 6 2 3 12 -6 18 -17 20 -16 47 14 15 17 28 26 28 20 0 -7
5 -12 11 -12 5 0 8 4 5 9 -3 5 1 12 10 15 10 4 13 2 8 -7 -6 -9 -5 -9 8 0 8 7
18 10 22 6 4 -4 4 0 1 9 -6 14 6 25 29 26 5 0 13 6 18 14 8 10 9 10 5 -3 -5
-17 26 -20 40 -4 5 4 3 5 -4 1 -6 -3 -14 -2 -18 4 -5 9 14 15 37 11 4 0 5 6 1
15 -5 14 -3 15 15 5 22 -12 25 0 7 29 -8 13 -6 13 8 2 17 -14 42 -7 32 9 -3 5
1 6 9 3 9 -3 13 -11 9 -18 -3 -6 6 0 21 14 14 13 24 30 22 37 -3 7 1 10 10 6
7 -3 14 -9 14 -13 0 -5 11 1 25 13 22 20 23 23 8 34 -21 16 -9 17 19 2 16 -9
19 -8 13 2 -6 9 -3 10 10 5 16 -6 16 -4 4 11 -13 16 -11 16 16 -1 l30 -19 -19
21 c-18 21 -18 21 2 17 11 -2 26 3 32 11 7 7 16 12 20 9 5 -3 6 3 3 14 -3 10
1 22 8 27 9 5 10 2 5 -11 -5 -14 -4 -16 7 -7 8 7 18 9 23 5 5 -4 3 -1 -3 7
-18 20 -16 35 2 20 13 -11 14 -10 8 6 -6 17 -5 18 12 4 11 -9 16 -10 11 -3 -4
7 -2 13 3 13 6 0 11 7 11 15 0 9 9 15 21 15 12 0 23 8 26 20 3 11 12 20 19 20
8 0 14 5 14 11 0 5 4 8 9 5 12 -8 29 15 26 35 -2 10 4 16 12 15 9 0 18 5 21
13 3 9 0 11 -8 6 -8 -5 -11 -4 -6 3 3 6 16 9 27 7 18 -4 19 -2 8 11 -7 8 -8
14 -3 13 5 -1 18 -1 29 0 15 1 17 3 6 10 -9 6 -10 11 -2 15 6 4 8 12 5 18 -4
6 -2 8 4 5 13 -9 44 2 37 13 -3 4 2 10 10 14 8 3 15 14 15 24 0 31 26 47 48
31 15 -13 16 -12 4 3 -10 13 -11 22 -2 37 6 12 13 21 16 21 3 0 2 -6 -2 -13
-5 -9 -4 -9 6 0 17 16 22 45 7 37 -7 -4 -3 2 8 13 11 11 23 19 28 16 4 -2 7 1
7 6 0 14 -13 14 -26 1 -6 -6 -10 -2 -11 12 -2 18 0 20 7 8 9 -15 11 -13 14 13
0 6 9 12 18 12 9 0 20 4 25 9 4 5 3 6 -4 2 -8 -4 -13 -2 -13 6 0 18 16 40 25
36 8 -3 16 24 16 54 0 11 6 15 17 12 9 -3 6 2 -8 10 -23 14 -23 15 -5 17 11 1
23 1 26 1 12 -1 2 40 -12 50 -11 7 -9 9 8 5 20 -4 21 -3 12 15 -8 15 -8 19 0
14 6 -4 11 -2 11 3 0 6 -4 11 -10 11 -5 0 -10 5 -10 11 0 5 5 7 10 4 6 -3 10
1 10 9 0 9 -4 16 -10 16 -5 0 -7 7 -4 15 4 8 10 15 16 15 5 0 7 -4 3 -9 -3 -5
-2 -12 3 -15 4 -2 8 11 8 30 0 33 -9 44 -21 24 -3 -5 -1 -10 6 -10 7 0 10 -3
6 -6 -3 -3 -10 -3 -16 0 -14 9 -2 36 15 36 8 0 14 5 14 11 0 6 -9 8 -22 4 -23
-6 -23 -6 -2 7 12 7 19 19 16 27 -3 9 0 11 7 6 7 -4 4 10 -6 31 -11 22 -19 58
-18 80 1 25 -3 41 -9 40 -6 -2 -8 -1 -3 1 4 3 4 10 1 15 -4 7 -2 8 4 4 7 -4
12 -3 12 3 0 5 -6 11 -12 14 -10 3 -9 8 2 22 9 11 10 16 3 11 -8 -4 -13 -2
-13 4 0 7 -7 10 -15 6 -8 -3 -15 -1 -15 4 0 6 7 10 15 10 8 0 15 4 15 9 0 6
-9 8 -19 6 -17 -3 -19 0 -11 21 6 15 6 24 0 24 -6 0 -10 -5 -10 -12 0 -6 -2
-9 -5 -6 -9 8 6 38 16 32 5 -3 6 2 3 10 -5 13 -9 12 -23 -6 -13 -15 -20 -18
-25 -9 -4 7 -2 10 5 9 6 -2 12 7 14 19 1 13 -2 23 -7 23 -4 0 -8 4 -8 10 0 5
8 7 18 4 9 -3 6 1 -7 9 -20 12 -21 15 -7 20 12 5 15 3 11 -6 -4 -6 0 -3 9 8 8
11 20 25 26 32 6 8 6 14 0 18 -6 3 -10 12 -9 18 0 9 2 9 6 0 6 -16 33 -17 33
-2 0 5 -4 8 -8 5 -5 -3 -9 1 -9 9 0 8 8 12 21 9 21 -3 21 -3 2 11 -20 15 -20
15 0 16 10 1 23 1 27 0 4 -1 2 9 -4 21 -11 20 -10 21 2 11 12 -10 15 -8 16 8
1 11 -2 17 -7 14 -6 -3 -7 1 -4 9 3 9 10 14 14 11 11 -7 22 24 13 38 -4 6 0 8
9 4 11 -4 15 0 13 11 -1 9 3 20 9 24 7 5 6 8 -4 8 -10 0 -7 5 8 16 12 8 20 19
17 24 -3 4 0 10 7 12 7 3 5 7 -6 11 -11 5 -15 3 -10 -5 4 -7 3 -8 -4 -4 -22
13 -12 26 16 22 26 -5 26 -4 8 9 -18 14 -15 20 9 15 6 -1 5 4 -2 11 -10 10 -9
15 5 26 9 8 12 12 6 9 -7 -3 -14 0 -17 7 -7 18 8 41 21 33 9 -5 9 14 2 34 -1
3 -2 8 -1 13 0 4 -4 7 -9 7 -6 0 -2 10 10 22 11 12 17 24 14 27 -3 3 -12 -3
-20 -14 -15 -20 -15 -20 -11 0 2 11 8 30 15 42 17 30 15 38 -5 22 -16 -12 -17
-12 -6 2 7 9 9 20 5 24 -4 5 -1 5 6 1 15 -9 16 6 0 22 -7 7 -8 12 -3 12 6 0 3
5 -5 11 -13 9 -12 10 2 5 10 -3 20 0 24 6 4 7 3 8 -4 4 -7 -4 -12 -2 -12 4 0
6 -5 8 -12 4 -7 -4 -8 -3 -4 5 4 6 11 9 16 6 5 -3 12 0 16 6 5 8 3 9 -6 4 -9
-6 -10 -2 -5 16 l8 23 -24 -25 c-13 -13 -19 -19 -14 -12 6 7 9 31 7 52 -3 31
-7 39 -20 34 -14 -4 -14 -3 -3 5 17 12 25 52 10 52 -5 0 -7 -4 -4 -10 3 -5 2
-10 -3 -10 -13 0 -25 29 -25 58 0 12 -4 22 -10 22 -5 0 -5 6 2 14 9 11 6 12
-14 8 -21 -4 -24 -1 -18 13 5 14 3 16 -8 10 -12 -8 -12 -6 0 8 7 9 9 17 4 17
-12 0 -54 35 -56 47 -1 4 -5 7 -9 6 -5 -2 -8 2 -8 8 0 5 -4 7 -10 4 -6 -4 -7
1 -3 11 5 14 3 16 -12 11 -16 -7 -16 -5 -4 10 12 15 12 16 -5 10 -17 -7 -17
-6 -5 9 13 16 12 16 -8 6 -16 -9 -24 -9 -29 0 -4 6 -3 8 3 5 6 -4 14 0 17 9 3
8 2 13 -3 10 -5 -3 -14 1 -21 9 -6 7 -17 12 -25 9 -7 -3 -16 0 -21 7 -4 7 -3
10 4 5 6 -3 14 -1 18 5 4 7 3 9 -4 5 -5 -3 -13 0 -15 6 -4 10 -6 10 -6 1 -1
-7 -6 -13 -12 -13 -5 0 -7 6 -3 13 6 9 4 9 -8 -1 -12 -9 -18 -10 -23 -2 -4 6
-13 9 -20 6 -9 -3 -12 3 -10 20 2 18 -1 22 -8 15 -8 -8 -17 -6 -31 7 -11 9
-16 11 -12 5 5 -9 0 -13 -13 -13 -12 0 -21 5 -21 10 0 6 -4 10 -10 10 -5 0 -7
-8 -4 -17 5 -16 4 -16 -8 -2 -7 9 -20 14 -28 11 -13 -5 -13 -3 0 14 14 18 14
18 -3 5 -14 -11 -21 -11 -29 -3 -7 7 -17 12 -22 12 -6 0 -4 -5 4 -10 13 -8 12
-10 -2 -10 -10 0 -18 6 -18 13 0 8 -4 7 -10 -3 -8 -11 -12 -12 -18 -3 -5 9
-12 6 -21 -10 -13 -20 -13 -21 2 -8 13 10 17 10 17 1 0 -9 4 -9 18 1 15 13 16
12 3 -3 -7 -10 -17 -15 -23 -12 -5 3 -16 0 -24 -7 -12 -10 -15 -10 -12 1 2 7
-7 13 -19 15 -14 1 -23 -4 -23 -12 0 -7 -5 -13 -11 -13 -5 0 -8 4 -4 9 3 5 0
13 -6 17 -8 4 -9 3 -5 -4 4 -7 1 -12 -9 -12 -10 0 -13 5 -9 12 4 7 3 8 -4 4
-7 -4 -12 -16 -12 -27 0 -10 -3 -18 -7 -18 -5 1 -12 0 -18 -1 -5 -1 -27 -2
-47 -2 -37 0 -42 -6 -39 -38 1 -10 -1 -11 -6 -4 -11 14 -52 24 -58 14 -3 -5 0
-12 6 -16 8 -5 9 -3 4 6 -5 9 -4 11 4 6 6 -4 9 -12 5 -17 -3 -5 -9 -7 -13 -4
-5 2 -16 -4 -26 -15 -13 -14 -22 -17 -34 -10 -11 6 -22 3 -35 -8 -18 -16 -18
-16 -12 8 3 14 3 19 0 12 -3 -6 -11 -9 -16 -6 -6 4 -8 2 -4 -4 3 -6 1 -14 -5
-18 -8 -4 -9 -3 -5 4 6 11 -6 17 -27 13 -4 -1 -2 7 4 18 15 22 5 55 -13 45 -9
-5 -8 -2 1 10 8 9 20 15 27 12 7 -3 16 -1 19 5 4 5 3 9 -2 8 -19 -3 -33 2 -33
12 0 5 6 7 13 3 8 -5 8 -2 -2 9 -8 10 -9 17 -3 17 6 0 16 -8 21 -17 6 -10 11
-13 11 -8 0 6 -5 16 -12 23 -9 9 -9 15 0 24 7 7 12 17 12 23 0 5 -5 2 -11 -7
-5 -10 -20 -23 -32 -28 -21 -11 -21 -11 -2 5 17 14 18 18 6 38 -13 19 -12 21
1 10 15 -13 28 -8 28 9 0 5 -4 6 -10 3 -5 -3 -10 1 -10 10 0 10 5 13 12 9 6
-4 8 -3 4 4 -3 5 0 13 6 15 9 4 8 6 -3 6 -8 1 -20 -4 -27 -11 -9 -9 -9 -5 0
14 7 15 16 24 20 22 3 -2 9 0 13 5 3 6 -3 8 -15 6 -11 -2 -23 1 -26 7 -4 6 -2
8 4 4 6 -3 13 -2 17 4 3 5 0 10 -7 10 -8 0 -14 10 -15 21 -2 21 -1 21 13 3 13
-18 14 -17 5 6 -4 14 -6 31 -4 38 3 6 0 12 -6 12 -6 0 -10 -5 -9 -11 2 -6 -4
-14 -12 -16 -13 -4 -13 -3 0 6 8 6 11 11 6 11 -5 0 -3 7 4 15 11 13 10 14 -3
9 -12 -4 -14 -1 -10 15 3 11 10 18 16 14 6 -3 7 -1 3 6 -4 6 -11 9 -15 7 -16
-10 -32 12 -33 47 l-1 36 -20 -22 c-14 -15 -18 -17 -14 -5 3 9 -1 22 -8 28 -8
7 -13 16 -10 20 8 12 -6 41 -16 34 -5 -3 -9 2 -9 12 0 14 -2 15 -17 3 -15 -13
-15 -12 -4 9 9 18 9 22 -1 20 -7 -2 -16 -10 -20 -18 -4 -8 -6 0 -4 18 4 28 2
31 -10 21 -12 -10 -13 -9 -7 7 6 17 5 18 -12 4 -11 -9 -16 -10 -11 -2 4 7 2
12 -5 12 -7 0 -9 3 -6 7 9 9 -24 32 -46 33 -14 0 -17 5 -12 23 5 16 4 18 -3 8
-13 -18 -42 -7 -42 15 0 12 -6 15 -21 11 -15 -4 -19 -2 -15 9 3 9 1 12 -4 9
-6 -3 -13 1 -16 10 -5 12 -9 13 -21 3 -12 -10 -14 -9 -11 4 1 9 -1 16 -7 15
-5 -1 -9 -5 -7 -9 1 -5 -2 -8 -8 -8 -10 0 -14 14 -11 38 1 6 -3 12 -9 12 -6 0
-8 -4 -5 -10 3 -5 1 -10 -5 -10 -7 0 -9 -7 -6 -16 3 -9 2 -12 -5 -9 -5 4 -7
14 -4 24 3 11 -1 17 -13 18 -83 8 -105 16 -77 27 9 3 13 2 10 -4 -3 -6 -2 -10
4 -10 5 0 9 9 8 19 0 11 -6 17 -11 13 -9 -5 -39 -6 -77 -3 -5 1 -7 6 -4 11 3
6 2 10 -4 10 -5 0 -12 -6 -14 -12 -3 -7 -6 -4 -6 8 -1 17 -8 21 -36 22 -43 2
-58 9 -49 24 4 6 2 8 -4 4 -6 -3 -13 -2 -16 3 -4 5 -14 8 -24 7 -9 -2 -20 2
-24 8 -5 7 -8 7 -8 -2 0 -8 9 -16 20 -19 11 -3 20 -9 20 -14 0 -17 -25 -4 -49
26 -13 17 -21 23 -18 15 3 -11 -2 -16 -14 -16 -11 0 -18 5 -15 11 5 14 -24 16
-41 3 -8 -7 -10 -3 -6 11 3 12 1 21 -6 21 -6 0 -10 -6 -8 -12 1 -7 -4 -12 -12
-10 -8 2 -18 -3 -23 -10 -6 -9 -7 -5 -3 10 5 19 3 22 -20 22 -18 0 -24 4 -19
13 6 9 4 9 -8 -1 -13 -10 -17 -10 -21 0 -4 10 -6 10 -6 1 -1 -16 -31 -17 -31
-2 0 5 4 7 10 4 6 -3 7 1 4 10 -6 14 -8 14 -21 -2 -8 -10 -12 -13 -9 -6 4 6 1
15 -5 19 -7 4 -10 3 -6 -2 3 -5 -6 -14 -19 -21 -17 -8 -26 -8 -31 -1 -3 6 -1
8 4 5 6 -4 16 -1 22 7 10 12 4 14 -38 12 -27 -1 -49 1 -49 4 1 18 -4 19 -18 5
-11 -11 -20 -13 -28 -6 -9 7 -17 7 -26 -2 -12 -10 -12 -9 -1 6 13 16 9 19 -15
16 -4 0 -11 5 -16 13 -6 9 -7 6 -3 -9 7 -24 -8 -32 -21 -12 -4 8 -9 7 -15 -2
-6 -9 -7 -1 -4 21 5 29 4 31 -4 12 -9 -20 -13 -21 -33 -11 -56 29 -64 32 -50
18 19 -20 14 -31 -8 -17 -17 11 -22 10 -31 -2 -9 -13 -10 -12 -5 3 6 20 -5 22
-23 5 -10 -11 -11 -10 -6 4 5 11 2 16 -9 14 -8 -1 -18 -5 -22 -9 -4 -4 -13 1
-20 11 -12 14 -15 15 -23 3 -11 -17 -49 -22 -57 -9 -3 5 -16 1 -27 -9 -21 -18
-21 -18 -7 1 14 18 13 19 -2 13 -11 -4 -15 -2 -12 7 3 7 -3 19 -13 27 -10 7
-15 9 -11 5 10 -11 -28 -39 -42 -31 -5 3 -8 11 -6 18 1 7 1 9 -1 5 -3 -5 -11
-8 -19 -8 -9 0 -12 5 -8 13 6 10 4 10 -7 0 -7 -7 -35 -13 -62 -13 -46 0 -48
-1 -36 -17 13 -17 13 -17 -5 -3 -10 8 -24 15 -30 16 -6 0 -17 2 -24 2 -8 1
-10 7 -6 15 4 6 -2 4 -13 -5 -24 -22 -33 -23 -33 -3 0 8 -5 15 -11 15 -5 0 -8
-4 -5 -8 3 -5 -8 -8 -25 -8 -22 0 -28 3 -24 14 4 12 3 13 -10 2 -8 -7 -12 -17
-8 -23 3 -6 1 -7 -6 -3 -6 4 -9 11 -6 16 3 5 0 12 -6 16 -8 5 -9 3 -4 -6 6
-10 4 -12 -10 -6 -15 5 -16 4 -5 -9 17 -20 6 -19 -15 1 -21 21 -32 10 -14 -13
12 -16 12 -17 -2 -6 -9 7 -19 10 -22 6 -4 -3 -7 2 -7 12 0 18 -1 18 -13 1 -13
-17 -47 -13 -47 6 0 5 -5 6 -10 3 -6 -4 -7 -11 -4 -17 4 -7 2 -8 -5 -4 -6 4
-9 11 -7 15 3 4 0 13 -6 21 -8 13 -9 12 -5 -2 3 -9 -1 -24 -9 -35 -14 -17 -15
-17 -9 5 4 13 2 22 -5 22 -6 0 -8 5 -5 10 3 6 4 10 1 10 -3 0 -7 -3 -7 -7z
m-370 -59 c-14 -18 -24 -11 -15 11 3 9 11 13 16 10 8 -5 7 -11 -1 -21z m882
13 c-6 -8 -8 -17 -4 -20 3 -4 1 -7 -5 -7 -16 0 -15 27 1 33 19 8 20 8 8 -6z
m99 -7 c-12 -22 -21 -26 -17 -7 2 10 17 26 25 27 1 0 -2 -9 -8 -20z m-60 6 c0
-3 -4 -8 -10 -11 -5 -3 -10 -1 -10 4 0 6 5 11 10 11 6 0 10 -2 10 -4z m-999
-29 c-10 -9 -11 -8 -5 6 3 10 9 15 12 12 3 -3 0 -11 -7 -18z m1190 0 c-10 -9
-11 -8 -5 6 3 10 9 15 12 12 3 -3 0 -11 -7 -18z m-1397 -28 c3 -3 -5 -5 -19
-5 -13 0 -22 3 -19 7 4 8 30 6 38 -2z m76 5 c0 -8 -19 -13 -24 -6 -3 5 1 9 9
9 8 0 15 -2 15 -3z m-450 -78 c0 -3 -4 -8 -10 -11 -5 -3 -10 -1 -10 4 0 6 5
11 10 11 6 0 10 -2 10 -4z m2598 -51 c-3 -3 -9 2 -12 12 -6 14 -5 15 5 6 7 -7
10 -15 7 -18z m391 -168 c0 -9 -2 -8 -6 1 -2 6 -10 9 -15 6 -7 -4 -8 -2 -4 5
9 13 26 5 25 -12z m-3738 -104 c13 -16 12 -17 -3 -4 -17 13 -22 21 -14 21 2 0
10 -8 17 -17z m-255 -415 c0 -23 -1 -37 -4 -30 -2 7 -9 9 -15 5 -7 -4 -7 -1 1
9 9 12 10 18 2 23 -8 5 -8 11 1 21 6 8 12 14 13 14 1 0 2 -19 2 -42z m4919
-127 c3 -5 2 -12 -3 -15 -5 -3 -9 1 -9 9 0 17 3 19 12 6z m-28 -23 c-3 -8 -6
-5 -6 6 -1 11 2 17 5 13 3 -3 4 -12 1 -19z m-4887 -63 c-5 -7 -9 -14 -7 -16 1
-2 0 -3 -2 -1 -11 7 -7 29 5 29 9 0 11 -4 4 -12z m5195 -4 c3 -5 1 -12 -5 -16
-5 -3 -10 1 -10 9 0 18 6 21 15 7z m-384 -185 c-8 -10 -9 -16 -1 -21 5 -3 10
-1 10 5 0 6 5 8 10 5 6 -4 8 -10 5 -15 -3 -4 3 -7 12 -6 9 2 18 8 19 15 1 6 0
7 -3 1 -2 -5 -9 -8 -14 -4 -19 11 -8 20 25 19 19 0 33 -2 31 -5 -2 -4 5 -12
17 -19 11 -7 17 -8 13 -2 -3 6 1 11 9 11 9 0 16 -6 16 -12 0 -9 4 -8 10 2 5 8
10 10 10 4 0 -7 7 -15 16 -18 8 -3 13 -2 10 3 -3 5 1 12 10 15 12 5 15 2 10
-10 -5 -12 -1 -14 15 -9 18 6 20 4 15 -17 -3 -12 -3 -17 0 -10 3 6 12 12 20
12 9 0 12 -4 9 -10 -6 -10 8 -13 50 -13 18 1 18 0 2 -12 -15 -11 -14 -13 9
-23 35 -17 44 -14 14 3 -14 8 -19 14 -12 15 23 0 74 -61 68 -82 -4 -16 -2 -17
10 -7 12 10 13 9 7 -7 -6 -17 -5 -18 13 -4 18 14 18 14 5 -2 -12 -17 -9 -23
12 -19 5 1 6 -3 3 -8 -4 -5 -1 -13 5 -17 8 -5 4 -13 -12 -25 l-24 -18 24 6
c21 5 22 4 12 -15 -8 -16 -7 -21 4 -26 9 -3 12 -12 8 -22 -5 -13 -3 -15 8 -9
12 8 12 6 0 -8 -15 -18 -26 -23 -16 -7 3 6 1 10 -4 10 -16 0 -13 -11 7 -33 10
-13 11 -17 3 -12 -11 6 -13 4 -8 -8 4 -10 1 -17 -5 -17 -7 0 -3 -7 8 -15 18
-14 18 -15 0 -9 -17 6 -17 5 -6 -17 13 -23 12 -23 -5 -9 -17 14 -18 14 -6 -7
6 -13 9 -23 5 -23 -3 0 -1 -7 6 -16 8 -8 9 -14 4 -13 -18 4 -43 -13 -38 -26 3
-7 1 -16 -5 -20 -6 -3 -11 -11 -11 -16 0 -6 5 -7 10 -4 15 9 12 -4 -5 -21 -8
-9 -19 -13 -24 -10 -5 4 -8 -2 -6 -11 1 -10 -2 -23 -7 -30 -5 -7 -6 -18 -2
-25 6 -10 3 -9 -9 1 -12 9 -17 10 -17 2 0 -7 -5 -9 -12 -5 -8 5 -7 0 2 -11 12
-15 12 -17 1 -10 -11 6 -13 4 -8 -10 7 -17 6 -17 -20 0 -27 18 -28 18 -13 -1
8 -10 20 -22 25 -26 7 -5 6 -8 0 -8 -6 0 -17 6 -24 13 -11 10 -13 10 -7 0 4
-7 2 -13 -3 -13 -6 0 -10 -3 -9 -7 2 -5 -1 -9 -7 -10 -5 -1 -8 6 -7 15 3 13 1
14 -11 4 -8 -7 -22 -10 -31 -6 -12 5 -13 10 -5 26 8 15 8 19 0 14 -6 -4 -11
-2 -11 3 0 6 -3 10 -7 10 -21 -3 -33 3 -33 17 0 11 -6 14 -20 9 -12 -4 -20 -2
-20 5 0 6 5 8 10 5 21 -13 9 11 -15 29 -14 11 -23 26 -21 33 3 8 1 11 -4 8 -6
-3 -10 -1 -10 4 0 6 -7 11 -16 11 -8 0 -12 -4 -9 -10 3 -5 1 -10 -5 -10 -7 0
-9 8 -5 22 6 17 4 20 -10 14 -16 -6 -16 -4 -4 11 8 9 9 14 2 10 -13 -8 -46 20
-38 33 3 4 -3 14 -12 21 -9 8 -14 9 -10 3 7 -12 -21 -29 -31 -19 -3 3 -1 5 5
5 5 0 10 6 10 14 0 8 -6 12 -14 9 -7 -3 -13 -10 -13 -16 0 -6 -3 -7 -6 -4 -4
4 -1 13 5 21 8 9 8 16 2 20 -5 4 -12 2 -16 -4 -4 -6 -11 -8 -16 -4 -5 3 -7 10
-4 15 4 5 0 9 -7 9 -9 0 -9 3 2 10 8 5 10 10 5 10 -6 0 -15 -4 -21 -10 -6 -6
-15 -5 -24 1 -12 9 -11 10 4 5 15 -5 17 -4 8 7 -7 8 -10 17 -7 21 3 3 0 2 -6
-3 -13 -11 -41 -3 -34 9 3 5 -3 9 -12 9 -44 1 -50 5 -45 23 3 15 -2 18 -27 18
-28 0 -36 8 -32 33 1 5 -3 6 -8 3 -5 -4 -11 -2 -13 4 -2 6 -15 3 -33 -6 -18
-9 -25 -10 -17 -3 13 14 17 33 4 25 -5 -3 -9 1 -9 9 0 8 3 12 7 10 4 -2 7 2 7
10 0 8 -4 12 -8 9 -4 -2 -11 1 -15 7 -4 7 -3 9 3 6 6 -4 19 5 28 19 9 15 12
23 6 20 -6 -4 -11 -1 -11 8 0 8 -6 17 -12 19 -8 4 -7 6 4 6 9 1 19 -5 21 -11
3 -7 6 -1 6 15 1 25 21 41 21 15 0 -27 16 10 19 45 1 5 6 5 11 2 6 -3 10 1 10
10 0 9 4 14 9 10 5 -3 12 -1 16 5 4 6 12 7 18 3 7 -4 6 1 -2 11 -12 15 -12 17
0 14 8 -2 17 -7 21 -13 5 -6 8 -5 8 3 0 6 5 12 11 12 5 0 7 -5 3 -12 -4 -7 -3
-8 5 -4 9 6 9 11 1 21 -8 10 -8 15 1 21 7 4 9 3 6 -3 -4 -6 2 -13 12 -16 15
-3 18 0 14 17 -4 19 -3 19 7 4 14 -22 30 -23 30 -3 0 13 4 14 22 4 17 -9 20
-9 15 3 -4 11 1 14 21 10 15 -3 31 -10 35 -16 5 -7 7 -6 6 4 -3 18 12 53 19
46 3 -3 -1 -12 -7 -20z m309 -66 c0 -5 -2 -10 -4 -10 -3 0 -8 5 -11 10 -3 6
-1 10 4 10 6 0 11 -4 11 -10z m-614 -65 c1 -9 -4 -11 -14 -7 -10 4 -12 7 -4
10 7 2 9 9 5 15 -3 7 -2 8 2 4 5 -4 10 -14 11 -22z m-51 -84 c3 -5 2 -12 -3
-15 -5 -3 -9 1 -9 9 0 17 3 19 12 6z m-4469 -63 c4 -7 3 -8 -4 -4 -7 4 -12 2
-12 -5 0 -7 -3 -10 -6 -6 -6 5 3 27 11 27 2 0 7 -5 11 -12z m4520 -66 c1 -7 0
-8 -3 -2 -2 5 -9 8 -14 4 -5 -3 -9 0 -9 6 0 15 23 7 26 -8z m-4695 -55 c-10
-9 -11 -8 -5 6 3 10 9 15 12 12 3 -3 0 -11 -7 -18z m4999 -121 c0 -2 -8 -10
-17 -17 -16 -13 -17 -12 -4 4 13 16 21 21 21 13z m-5273 -31 c0 -8 -4 -12 -9
-9 -4 3 -8 1 -8 -4 0 -6 -8 -13 -17 -16 -13 -5 -11 0 6 18 29 30 28 30 28 11z
m5363 -75 c0 -5 -5 -10 -11 -10 -5 0 -7 5 -4 10 3 6 8 10 11 10 2 0 4 -4 4
-10z m520 -35 c0 -12 -19 -12 -23 0 -4 9 -1 12 9 8 7 -3 14 -7 14 -8z m-6170
-185 c-8 -5 -19 -10 -25 -10 -5 0 -3 5 5 10 8 5 20 10 25 10 6 0 3 -5 -5 -10z
m6047 -326 c-3 -3 -12 -4 -19 -1 -8 3 -5 6 6 6 11 1 17 -2 13 -5z m25 -210
c-9 -16 -10 -14 -9 8 1 15 6 23 11 18 4 -4 4 -16 -2 -26z m-29 -251 c-3 -7 -6
-13 -8 -13 -2 0 -5 6 -8 13 -3 8 1 14 8 14 7 0 11 -6 8 -14z m-28 -74 c-4 -5
-12 -9 -18 -8 -9 0 -8 2 1 6 6 2 9 10 6 15 -4 7 -2 8 5 4 6 -4 9 -12 6 -17z
m-125 -209 c0 -5 -5 -10 -11 -10 -5 0 -7 5 -4 10 3 6 8 10 11 10 2 0 4 -4 4
-10z m-200 -265 c0 -12 -19 -12 -23 0 -4 9 -1 12 9 8 7 -3 14 -7 14 -8z m-40
-15 c0 -5 -5 -10 -11 -10 -5 0 -7 5 -4 10 3 6 8 10 11 10 2 0 4 -4 4 -10z
m-39 -43 c-10 -9 -11 -8 -5 6 3 10 9 15 12 12 3 -3 0 -11 -7 -18z m-141 -122
c-7 -9 -15 -13 -19 -10 -3 3 1 10 9 15 21 14 24 12 10 -5z m-101 -68 c-2 -1
-11 -8 -21 -15 -12 -10 -18 -10 -24 -1 -4 7 -3 9 4 5 6 -3 13 -2 17 4 3 5 11
10 17 10 6 0 9 -1 7 -3z m-75 -36 c3 -5 -2 -15 -12 -22 -15 -12 -16 -12 -5 2
7 9 10 19 6 22 -3 4 -4 7 0 7 3 0 8 -4 11 -9z m-758 -343 c3 -4 -1 -5 -10 -4
-8 1 -18 5 -22 8 -3 4 1 5 10 4 8 -1 18 -5 22 -8z m-3079 -43 c0 -8 -4 -12 -9
-9 -5 3 -6 10 -3 15 9 13 12 11 12 -6z m2780 -20 c0 -8 -4 -12 -9 -9 -5 3 -6
10 -3 15 9 13 12 11 12 -6z m-247 -55 c0 -5 -2 -10 -4 -10 -3 0 -8 5 -11 10
-3 6 -1 10 4 10 6 0 11 -4 11 -10z m-1635 -60 c-3 -5 -12 -10 -18 -10 -7 0 -6
4 3 10 19 12 23 12 15 0z m66 -25 c5 -7 0 -11 -15 -11 -20 0 -21 3 -12 23 6
12 13 17 15 10 2 -7 7 -17 12 -22z m-130 2 c-10 -9 -11 -8 -5 6 3 10 9 15 12
12 3 -3 0 -11 -7 -18z m1103 5 c3 -5 -1 -9 -9 -9 -8 0 -12 4 -9 9 3 4 7 8 9 8
2 0 6 -4 9 -8z m-697 -34 c-3 -8 -6 -5 -6 6 -1 11 2 17 5 13 3 -3 4 -12 1 -19z
m133 16 c0 -8 -19 -13 -24 -6 -3 5 1 9 9 9 8 0 15 -2 15 -3z"/>
<path d="M6208 4043 c6 -2 10 -8 8 -12 -3 -4 1 -8 9 -8 11 0 12 4 4 14 -6 7
-17 13 -23 12 -7 0 -6 -2 2 -6z"/>
<path d="M6267 3947 c-3 -7 3 -13 14 -13 13 0 15 3 7 13 -6 7 -12 13 -13 13
-2 0 -5 -6 -8 -13z"/>
<path d="M5620 3805 c0 -7 30 -13 34 -7 3 4 -4 9 -15 9 -10 1 -19 0 -19 -2z"/>
<path d="M6256 3658 c3 -4 11 -5 19 -1 21 7 19 12 -4 10 -11 0 -18 -5 -15 -9z"/>
<path d="M6230 3580 c0 -5 5 -10 11 -10 5 0 7 5 4 10 -3 6 -8 10 -11 10 -2 0
-4 -4 -4 -10z"/>
<path d="M2715 5489 c-4 -6 -5 -12 -2 -15 2 -3 7 2 10 11 7 17 1 20 -8 4z"/>
<path d="M2796 5479 c3 -5 9 -7 14 -4 4 3 11 0 13 -5 3 -6 4 -5 3 1 -1 7 -10
13 -19 15 -9 1 -15 -2 -11 -7z"/>
<path d="M2910 5480 c0 -5 5 -10 10 -10 6 0 10 5 10 10 0 6 -4 10 -10 10 -5 0
-10 -4 -10 -10z"/>
<path d="M3155 5480 c-3 -5 -1 -10 4 -10 6 0 11 5 11 10 0 6 -2 10 -4 10 -3 0
-8 -4 -11 -10z"/>
<path d="M3435 5480 c3 -5 8 -10 11 -10 2 0 4 5 4 10 0 6 -5 10 -11 10 -5 0
-7 -4 -4 -10z"/>
<path d="M3717 5466 c-4 -9 -3 -15 1 -15 4 1 9 0 12 -1 17 -7 48 -5 44 2 -4 5
-12 7 -20 4 -7 -3 -17 2 -22 11 -8 14 -10 14 -15 -1z"/>
<path d="M4040 5421 c0 -6 4 -13 10 -16 6 -3 7 1 4 9 -7 18 -14 21 -14 7z"/>
<path d="M4131 5411 c-8 -5 -9 -11 -3 -15 5 -3 12 1 16 9 6 17 6 18 -13 6z"/>
<path d="M4430 5351 c0 -6 4 -13 10 -16 6 -3 7 1 4 9 -7 18 -14 21 -14 7z"/>
<path d="M1405 5120 c5 -9 -7 -14 -27 -12 -3 1 -9 -5 -12 -13 -5 -13 -1 -13
25 0 16 9 27 20 24 25 -4 6 -8 10 -11 10 -3 0 -2 -4 1 -10z"/>
<path d="M5083 5095 c0 -8 4 -12 9 -9 5 3 6 10 3 15 -9 13 -12 11 -12 -6z"/>
<path d="M1308 5056 c-10 -7 -15 -16 -12 -19 4 -3 13 1 21 9 20 19 13 26 -9
10z"/>
<path d="M1155 4941 c-3 -5 -2 -12 3 -15 5 -3 9 1 9 9 0 17 -3 19 -12 6z"/>
<path d="M5300 4885 c0 -2 6 -8 13 -14 10 -8 14 -7 14 2 0 8 -6 14 -14 14 -7
0 -13 -1 -13 -2z"/>
<path d="M993 4525 c0 -8 4 -15 9 -15 4 0 8 4 8 9 0 6 -4 12 -8 15 -5 3 -9 -1
-9 -9z"/>
<path d="M980 4495 c0 -5 5 -17 10 -25 5 -8 10 -10 10 -5 0 6 -5 17 -10 25 -5
8 -10 11 -10 5z"/>
<path d="M5706 4438 c5 -7 2 -9 -9 -5 -11 4 -14 2 -10 -9 4 -11 9 -12 19 -3
12 10 11 29 -2 29 -3 0 -2 -5 2 -12z"/>
<path d="M6135 4420 c3 -5 8 -10 11 -10 2 0 4 5 4 10 0 6 -5 10 -11 10 -5 0
-7 -4 -4 -10z"/>
<path d="M5411 4393 c7 -12 15 -20 18 -17 3 2 -3 12 -13 22 -17 16 -18 16 -5
-5z"/>
<path d="M5520 4360 c14 -9 7 -14 -13 -11 -5 1 -6 -3 -2 -9 5 -8 11 -8 21 1
15 12 10 29 -9 29 -7 0 -6 -4 3 -10z"/>
<path d="M5415 4350 c-3 -6 1 -7 9 -4 18 7 21 14 7 14 -6 0 -13 -4 -16 -10z"/>
<path d="M6317 4299 c7 -7 15 -10 18 -7 3 3 -2 9 -12 12 -14 6 -15 5 -6 -5z"/>
<path d="M6438 4103 c7 -3 16 -2 19 1 4 3 -2 6 -13 5 -11 0 -14 -3 -6 -6z"/>
<path d="M1053 3983 c4 -3 1 -13 -6 -22 -11 -14 -10 -14 5 -2 16 12 16 31 1
31 -4 0 -3 -3 0 -7z"/>
<path d="M6502 3876 c7 -8 15 -12 17 -11 5 6 -10 25 -20 25 -5 0 -4 -6 3 -14z"/>
<path d="M6489 3793 c-12 -16 -12 -17 2 -6 9 7 20 9 24 5 5 -4 5 -1 1 6 -9 16
-11 15 -27 -5z"/>
<path d="M6496 3742 c-2 -4 -1 -14 3 -21 6 -9 11 -10 15 -2 4 6 2 11 -4 11 -6
0 -8 5 -5 10 3 6 4 10 1 10 -3 0 -7 -4 -10 -8z"/>
<path d="M6764 3258 c-4 -7 -3 -8 4 -4 15 9 15 3 -2 -39 -8 -18 -12 -36 -9
-39 3 -3 -7 -3 -23 0 -28 5 -28 4 -9 -10 19 -13 19 -15 3 -21 -10 -4 -18 -11
-18 -17 0 -5 6 -6 13 -2 9 5 9 3 -1 -7 -10 -11 -14 -11 -21 -1 -5 8 -8 -1 -9
-25 -1 -22 -8 -40 -17 -46 -8 -4 -13 -12 -10 -18 4 -5 0 -9 -7 -9 -10 0 -10
-2 1 -9 8 -6 11 -16 6 -31 -5 -17 -4 -21 6 -16 8 4 6 1 -3 -7 -22 -17 -23 -28
-4 -21 18 7 30 -12 15 -22 -8 -4 -9 -3 -5 4 8 14 -29 11 -41 -3 -5 -4 -3 -5 3
-2 7 4 20 -5 29 -21 18 -27 18 -27 -2 -9 -27 24 -38 9 -13 -18 16 -17 17 -22
6 -22 -8 0 -13 4 -11 8 3 4 -2 10 -10 13 -13 5 -14 2 -3 -17 7 -12 13 -26 14
-32 1 -5 5 -17 9 -26 3 -10 2 -20 -4 -24 -6 -3 -9 0 -5 8 3 8 0 18 -6 22 -7 4
-9 -4 -5 -25 3 -17 2 -29 -3 -26 -4 2 -8 -4 -8 -14 0 -10 5 -18 11 -17 5 1 10
-6 10 -15 0 -9 4 -20 9 -25 5 -5 6 -2 1 6 -5 9 -4 12 3 7 16 -10 15 0 -3 28
-14 21 -14 24 2 37 16 13 17 12 4 -3 -11 -14 -11 -18 -1 -18 8 0 10 -3 7 -7
-4 -3 -2 -12 4 -20 14 -16 -7 -47 -26 -39 -6 2 -12 -2 -12 -9 0 -7 6 -11 12
-9 7 3 18 -3 26 -12 9 -12 10 -15 2 -10 -7 4 -13 2 -13 -3 0 -6 5 -11 11 -11
8 0 7 -5 -2 -16 -8 -10 -9 -18 -2 -22 5 -4 9 -15 7 -25 -1 -9 1 -15 6 -12 9 6
8 24 -3 43 -5 7 -4 12 2 12 6 0 11 -3 12 -7 1 -5 2 -19 4 -33 2 -14 7 -35 10
-47 5 -16 3 -23 -6 -23 -10 -1 -10 -3 2 -10 10 -6 15 -20 14 -35 -2 -14 1 -25
7 -25 6 0 8 6 5 14 -3 8 2 20 11 28 15 11 15 11 6 -2 -7 -9 -8 -23 -3 -35 11
-28 11 -37 -1 -30 -5 3 -10 4 -10 0 0 -3 12 -10 26 -15 14 -6 22 -14 19 -20
-3 -5 0 -10 7 -10 11 0 13 83 11 437 0 241 -1 450 -2 466 -1 28 -14 36 -27 15z
m-76 -263 c-3 -3 -9 2 -12 12 -6 14 -5 15 5 6 7 -7 10 -15 7 -18z m-1 -341
c-3 -3 -12 -4 -19 -1 -8 3 -5 6 6 6 11 1 17 -2 13 -5z"/>
<path d="M6742 3210 c-7 -11 -8 -20 -3 -20 9 0 24 30 18 36 -1 2 -8 -6 -15
-16z"/>
<path d="M6357 2869 c7 -7 15 -10 18 -7 3 3 -2 9 -12 12 -14 6 -15 5 -6 -5z"/>
<path d="M6758 2333 c6 -2 10 -8 8 -12 -3 -4 5 -8 17 -8 21 -2 22 -1 3 13 -11
8 -25 14 -30 13 -6 0 -5 -3 2 -6z"/>
<path d="M6145 2209 c-4 -6 -4 -13 -1 -16 3 -4 6 -1 6 6 0 7 5 9 12 5 7 -4 8
-3 4 4 -9 15 -13 15 -21 1z"/>
<path d="M6080 2120 c-9 -6 -10 -10 -3 -10 6 0 15 5 18 10 8 12 4 12 -15 0z"/>
<path d="M530 1900 c13 -11 25 -20 28 -20 3 0 -3 9 -13 20 -10 11 -23 20 -28
20 -6 0 0 -9 13 -20z"/>
<path d="M5376 1595 c-9 -26 -7 -32 5 -12 6 10 9 21 6 23 -2 3 -7 -2 -11 -11z"/>
<path d="M5139 1483 c-13 -16 -12 -17 4 -4 16 13 21 21 13 21 -2 0 -10 -8 -17
-17z"/>
<path d="M1235 1480 c3 -5 8 -10 11 -10 2 0 4 5 4 10 0 6 -5 10 -11 10 -5 0
-7 -4 -4 -10z"/>
<path d="M1676 1342 c-3 -5 1 -15 8 -21 11 -10 14 -9 12 3 -3 21 -13 29 -20
18z"/>
<path d="M4479 1292 c9 -7 10 -11 2 -15 -7 -4 -8 -5 0 -3 15 2 13 20 -3 24
-10 3 -10 2 1 -6z"/>
<path d="M1835 1280 c-3 -6 1 -7 9 -4 18 7 21 14 7 14 -6 0 -13 -4 -16 -10z"/>
<path d="M2026 1273 c-12 -12 -6 -22 9 -16 9 3 15 1 13 -5 -4 -13 15 -17 20
-3 4 12 -33 33 -42 24z"/>
<path d="M4215 1240 c-3 -5 -1 -10 4 -10 6 0 11 5 11 10 0 6 -2 10 -4 10 -3 0
-8 -4 -11 -10z"/>
<path d="M4055 1200 c-3 -6 1 -7 9 -4 18 7 21 14 7 14 -6 0 -13 -4 -16 -10z"/>
<path d="M2490 1178 c0 -4 4 -8 9 -8 6 0 12 4 15 8 3 5 -1 9 -9 9 -8 0 -15 -4
-15 -9z"/>
<path d="M3585 1170 c-4 -6 -12 -7 -18 -4 -7 4 -8 3 -4 -1 13 -15 37 -14 37 1
0 16 -6 18 -15 4z"/>
<path d="M2615 1160 c-3 -5 -1 -10 4 -10 6 0 11 5 11 10 0 6 -2 10 -4 10 -3 0
-8 -4 -11 -10z"/>
<path d="M2810 1145 c-11 -13 -10 -14 4 -9 9 3 16 10 16 15 0 13 -6 11 -20 -6z"/>
<path d="M3006 1147 c3 -10 9 -15 12 -12 3 3 0 11 -7 18 -10 9 -11 8 -5 -6z"/>
<path d="M3417 1153 c-4 -3 -7 -11 -7 -17 0 -6 5 -5 12 2 6 6 9 14 7 17 -3 3
-9 2 -12 -2z"/>
<path d="M3034 1139 c-4 -7 -3 -9 4 -5 5 3 13 0 15 -6 4 -9 6 -10 6 -1 1 17
-16 25 -25 12z"/>
<path d="M3195 1139 c-4 -6 -5 -12 -2 -15 2 -3 7 2 10 11 7 17 1 20 -8 4z"/>
<path d="M3075 1120 c3 -5 8 -10 11 -10 2 0 4 5 4 10 0 6 -5 10 -11 10 -5 0
-7 -4 -4 -10z"/>
</g>
</svg>
